<svg width="24" height="25" viewBox="0 0 24 25" fill="none" xmlns="http://www.w3.org/2000/svg">
<path d="M18 8.5C19.6569 8.5 21 7.15685 21 5.5C21 3.84315 19.6569 2.5 18 2.5C16.3431 2.5 15 3.84315 15 5.5C15 7.15685 16.3431 8.5 18 8.5Z" stroke="white" stroke-width="2" stroke-linecap="round" stroke-linejoin="round"/>
<path d="M6 15.5C7.65685 15.5 9 14.1569 9 12.5C9 10.8431 7.65685 9.5 6 9.5C4.34315 9.5 3 10.8431 3 12.5C3 14.1569 4.34315 15.5 6 15.5Z" stroke="white" stroke-width="2" stroke-linecap="round" stroke-linejoin="round"/>
<path d="M18 22.5C19.6569 22.5 21 21.1569 21 19.5C21 17.8431 19.6569 16.5 18 16.5C16.3431 16.5 15 17.8431 15 19.5C15 21.1569 16.3431 22.5 18 22.5Z" stroke="white" stroke-width="2" stroke-linecap="round" stroke-linejoin="round"/>
<path d="M8.59009 14.01L15.4201 17.99" stroke="white" stroke-width="2" stroke-linecap="round" stroke-linejoin="round"/>
<path d="M15.4101 7.01001L8.59009 10.99" stroke="white" stroke-width="2" stroke-linecap="round" stroke-linejoin="round"/>
</svg>
