<svg width="73" height="95" viewBox="0 0 73 95" fill="none" xmlns="http://www.w3.org/2000/svg">
<path d="M16.8168 10.0734C16.8168 10.0734 18.8747 9.97867 19.4627 9.51574C20.0506 9.05281 20.0058 5.7071 20.215 5.97539C20.4243 5.7071 20.3944 9.05281 20.9674 9.51574C21.5554 9.97867 23.6133 10.0734 23.6133 10.0734C24.1863 10.247 21.2515 10.3416 20.8927 10.5521C20.5339 10.7572 20.3795 13.9662 20.215 13.9504C20.0506 13.9662 19.9011 10.7572 19.5374 10.5521C19.1786 10.3469 16.2438 10.2522 16.8168 10.0734ZM7.12039 70.7643C7.12039 70.7643 5.06252 70.6696 4.47456 70.2067C3.88659 69.7438 3.93144 66.3981 3.72216 66.6664C3.51289 66.3981 3.54278 69.7438 2.96977 70.2067C2.3818 70.6696 0.32393 70.7643 0.32393 70.7643C-0.249086 70.9379 2.68575 71.0326 3.04451 71.243C3.40327 71.4535 3.55773 74.6571 3.72216 74.6413C3.88659 74.6571 4.03608 71.4482 4.39982 71.243C4.76356 71.0379 7.67846 70.9432 7.12039 70.7643ZM59.9873 73.968C59.9873 73.968 57.9294 73.8733 57.3415 73.4104C56.7535 72.9474 56.7984 69.6017 56.5891 69.87C56.3798 69.6017 56.4097 72.9474 55.8367 73.4104C55.2487 73.8733 53.1909 73.968 53.1909 73.968C52.6178 74.1416 55.5527 74.2363 55.9114 74.4467C56.2702 74.6571 56.4247 77.8608 56.5891 77.845C56.7535 77.8608 56.903 74.6519 57.2667 74.4467C57.6255 74.2415 60.5454 74.1469 59.9873 73.968ZM29.6723 2.97688C29.9115 3.10313 30.0012 5.18104 30.1108 5.16526C30.2154 5.18104 30.3051 3.10313 30.5493 2.97688C30.7934 2.85062 32.6669 2.7875 32.3082 2.66124C32.3082 2.66124 30.9828 2.59812 30.6091 2.29826C30.2353 1.99841 30.2652 -0.163672 30.1108 0.00992648C29.9762 -0.163672 29.9912 1.99315 29.6125 2.29826C29.2388 2.59812 27.9134 2.66124 27.9134 2.66124C27.5546 2.77172 29.4331 2.83484 29.6723 2.97688ZM64.4967 54.2514C64.4967 54.2514 63.1713 54.1883 62.7976 53.8885C62.4239 53.5886 62.4538 51.4265 62.2993 51.6001C62.1648 51.4265 62.1797 53.5834 61.801 53.8885C61.4224 54.1936 60.1019 54.2514 60.1019 54.2514C59.7432 54.3619 61.6217 54.4251 61.8608 54.5671C62.1 54.6933 62.1897 56.7713 62.2993 56.7555C62.4039 56.7713 62.4936 54.6933 62.7378 54.5671C62.977 54.4408 64.8555 54.3619 64.4967 54.2514ZM67.8501 44.7614C67.88 44.7772 67.9099 44.793 67.9099 44.793C67.9248 44.7772 67.8949 44.7772 67.8501 44.7614ZM72.3894 40.048C72.2847 40.332 72.0306 40.5425 71.622 40.7161C71.1537 40.9212 70.4959 41.1106 69.609 41.3526L69.5642 41.3684C69.3549 41.4315 69.1107 41.4946 68.8417 41.5735C68.6025 41.6367 68.3434 41.7156 68.0743 41.7945C68.8865 43.683 69.3848 44.4931 70.0873 45.2717C70.9743 46.2554 70.9892 47.9704 71.0191 49.1119C71.0191 49.4118 71.0341 49.6695 71.049 49.8115C71.0939 50.0798 71.0191 50.3376 70.8547 50.5112C70.6454 50.7164 70.3415 50.8111 69.893 50.8111C69.3947 50.8111 68.7071 50.7006 67.8202 50.5428H67.7754C67.5661 50.5112 67.307 50.4639 67.0379 50.4323C65.2043 50.1798 62.1349 49.7326 59.8827 47.6547C59.793 47.5758 59.7183 47.4969 59.6286 47.418C59.6136 47.7179 59.6136 47.9914 59.5987 48.2439C59.3894 52.2261 59.1801 55.9927 58.1238 58.0548C57.9743 58.3389 57.8099 58.6282 57.6255 58.9123C57.6703 59.4384 57.7152 60.7693 57.0226 62.6894C56.903 63.0366 56.7834 63.389 56.6638 63.7047C55.9862 65.6248 55.463 67.1345 54.4814 67.9604C53.9682 68.3865 53.4749 68.5181 53.0513 68.5339C52.7972 68.5339 52.5531 68.5023 52.3737 68.4392C51.8904 70.4382 51.5167 75.2516 51.5167 77.1401C51.5167 77.9502 51.6661 78.5552 51.7857 79.076C51.9651 79.823 52.1295 80.5226 51.8007 81.4432C51.4569 82.3796 51.0632 82.7426 50.7643 83.0477C50.5998 83.2055 50.4653 83.3318 50.3756 83.5422C50.3158 83.6684 50.2112 83.9052 50.0916 84.2261C49.5036 85.6569 48.2729 88.6239 46.6186 90.181C46.1652 90.6071 45.7915 90.9911 45.4327 91.3699C44.2917 92.5588 43.3748 93.5109 41.4017 93.9896C39.6428 94.4158 38.2127 94.5473 37.0567 94.642C36.5883 94.6893 36.1847 94.7209 35.811 94.7682C34.8942 94.8945 33.9475 94.9418 33.4343 94.9734C33.4343 94.9734 33.0307 95.0207 32.8164 94.9892C32.4128 94.9734 31.2967 94.9102 30.2005 94.7682C29.8268 94.7209 29.4182 94.6893 28.9548 94.642C27.7988 94.5473 26.3538 94.421 24.6098 93.9896C22.6416 93.5109 21.7248 92.5588 20.5788 91.3699C20.22 90.9911 19.8413 90.6071 19.3929 90.181C17.7536 88.6397 16.5228 85.6569 15.9199 84.2261C15.7854 83.9104 15.6957 83.6684 15.6359 83.5422C15.5313 83.337 15.4117 83.2266 15.2473 83.0477C14.9333 82.7478 14.5547 82.3796 14.2108 81.4432C13.882 80.5226 14.0464 79.823 14.2258 79.076C14.3454 78.5499 14.4949 77.9502 14.4949 77.1401C14.4949 75.2673 14.1062 70.4434 13.6378 68.4392C13.4584 68.5023 13.2193 68.5339 12.9602 68.5339C12.5416 68.5181 12.0284 68.3918 11.5301 67.9604C10.5535 67.1345 10.0253 65.6248 9.34768 63.7047C9.2281 63.3732 9.10851 63.0366 8.98892 62.6894C8.29632 60.7693 8.32622 59.4173 8.38601 58.9123C8.20663 58.6282 8.0422 58.3389 7.88774 58.0548C6.83638 55.9927 6.64205 52.2314 6.41285 48.2439C6.3381 46.7657 6.3381 44.3406 6.48759 41.6577C6.47264 41.6577 6.44274 41.6735 6.42779 41.6735C5.54086 41.8155 4.47456 41.2632 4.00618 40.4372C3.63247 39.7534 3.67732 38.9748 4.15566 38.2962C4.80342 37.3756 4.9828 36.8811 5.37145 35.7869C5.59567 35.1662 5.86972 34.4034 6.33312 33.2776C6.83139 32.073 7.07057 30.9104 7.27984 29.8793C7.62365 28.2433 7.91265 26.8492 9.0238 25.8497C9.86589 25.1027 10.7678 24.9134 11.5202 24.9765C11.9586 21.0889 12.3473 16.7227 12.1679 15.6758C11.9885 14.6448 7.50905 11.8041 5.59568 10.5941C3.76203 9.43683 3.26375 9.10016 3.05448 8.8003C2.57115 8.11643 2.97973 6.99067 3.61254 6.16477C4.30514 5.27573 5.10238 4.94432 5.76509 5.24417C6.59222 5.65449 14.9383 10.9729 16.1541 12.8772C16.772 13.8452 16.7869 17.2119 16.6374 20.4945C17.4197 19.8895 18.6206 19.1478 19.8264 19.1636C20.9824 19.1794 21.6152 19.6055 22.0387 19.8948C22.3377 20.1 22.4274 20.1473 22.537 20.1C22.836 20.0053 22.9556 19.7212 23.1549 19.1794C23.2296 18.9584 23.3193 18.7164 23.4389 18.4797C23.4987 18.3692 23.5435 18.2588 23.5734 18.1483C23.8574 17.4171 24.2212 16.5123 26.7773 15.7337C28.312 15.2708 28.9448 15.4339 29.3335 15.5285C29.3933 15.5443 29.468 15.5601 29.483 15.5601C29.4979 15.5601 29.5726 15.497 29.8118 15.1971C29.9613 15.0078 30.0958 14.8184 30.2304 14.6237C30.9379 13.6242 31.6156 12.6878 33.5389 12.53C34.8793 12.4196 35.5818 12.8299 36.0951 13.1508C36.4389 13.3559 36.6382 13.4664 36.9222 13.4348C37.3407 13.3875 37.6895 13.5295 37.9885 13.7347C38.0035 13.0508 38.1081 12.388 38.1978 11.8619C38.2426 11.5621 38.2875 11.3043 38.3024 11.1623C38.3174 10.894 38.422 10.652 38.6163 10.5258C38.8555 10.3522 39.1744 10.3364 39.6079 10.4311C40.1062 10.5258 40.7489 10.7783 41.606 11.1149L41.6508 11.1307C41.8601 11.2096 42.0893 11.2885 42.3584 11.3832C43.7286 11.8777 45.8014 12.6352 47.5305 14.1135C49.3342 12.8299 51.412 12.0198 53.6343 11.7778C60.959 10.9676 67.5262 16.6017 68.2786 24.3347C68.5925 27.4963 67.875 30.5264 66.43 33.0672C68.0095 34.577 68.7769 35.1451 69.7535 35.5765C70.9244 36.1026 71.6021 37.6702 72.0555 38.7013C72.1751 38.9696 72.2798 39.2115 72.3396 39.3378C72.4442 39.5587 72.4741 39.8323 72.3844 40.0532L72.3894 40.048ZM38.9352 14.9972L38.9502 15.013C38.9801 15.1077 39.0249 15.1866 39.0698 15.2655H39.0997L39.0847 15.2813C39.0847 15.2813 39.0847 15.2971 39.0997 15.2971C39.2491 15.5338 39.9567 16.6438 40.455 16.9647C40.7988 17.1856 40.3354 17.0278 39.8221 16.7753C40.2606 17.9011 40.5895 19.3793 41.1177 21.9675C41.2522 22.6513 41.4914 23.351 41.7804 24.0296C41.8551 23.3142 41.9896 22.6145 42.184 21.9359C42.184 21.9201 42.1989 21.9043 42.1989 21.8886C42.3484 21.3152 42.5427 20.7628 42.757 20.221C41.8103 19.4897 40.9981 18.6954 40.9981 18.6954L41.8402 19.3319C42.1391 19.5686 42.5328 19.7422 42.8915 19.8738C43.0111 19.6213 43.1307 19.3635 43.2503 19.111C43.1755 19.0163 43.1008 18.9374 43.0111 18.8427C42.2886 18.0168 40.8436 16.9699 40.5297 16.7648C40.8885 16.9857 42.8317 18.1483 42.9663 18.2272C42.8018 18.1167 40.9682 14.5922 40.9682 14.5922C40.9682 14.5922 42.0943 16.2755 43.614 18.4324C43.8831 17.9694 44.1721 17.5433 44.486 17.1172C44.3066 16.244 44.0675 14.5922 44.0675 14.5922L43.7984 16.7963C43.7984 16.7963 41.4515 13.9714 40.4749 12.9719C39.4833 11.9724 39.3787 11.8619 39.3787 11.8619C39.3787 11.8619 43.7834 12.6563 46.504 14.9236C46.6087 14.8289 46.7282 14.7342 46.8329 14.6553C45.2533 13.3559 43.3449 12.6721 42.0793 12.2091C41.8103 12.1144 41.5661 12.0198 41.3568 11.9409L41.312 11.9251C40.5148 11.6252 39.4484 11.2096 39.1146 11.2412C39.0997 11.4464 39.0548 11.7041 39.01 12.0198C38.8605 12.8299 38.6512 14.1135 38.9352 15.0025V14.9972ZM16.5029 22.4883C17.1357 21.9464 18.0675 21.2205 18.9694 20.8996C20.519 20.342 21.5853 21.4572 21.5853 21.4572C21.5853 21.4572 20.3546 20.7102 19.1338 21.3941C17.918 22.0779 17.2254 23.5982 16.9663 24.6661C16.8168 25.3026 16.8766 25.7761 16.9514 26.0654C18.8 26.1443 22.0338 26.0181 23.6282 25.8445C25.7658 25.6078 28.7256 25.8603 30.0659 27.3543C31.4362 27.3227 32.4576 27.2911 32.8762 27.2754H33.0855C33.5539 27.2911 34.7099 27.3227 36.2744 27.37C36.5585 27.0702 36.982 26.702 37.5351 26.4968C38.5565 26.1023 38.422 26.4652 38.1828 25.9234C37.9586 25.3816 37.7443 24.7819 38.9352 24.098C39.6577 23.6719 40.2606 23.5088 40.6044 23.4299C40.5895 23.3668 40.5596 23.2879 40.5446 23.2247C40.156 23.0985 39.5232 22.9722 38.7857 23.13C37.5849 23.3668 35.811 24.7029 36.1847 24.7976C36.5136 24.8765 37.2511 25.7024 37.5401 25.9234C37.1962 25.8129 36.0353 25.5131 34.8643 25.4131C33.3745 25.2869 31.481 26.6809 31.481 26.6809C31.481 26.6809 31.197 26.7598 32.2334 25.855C33.2698 24.9502 34.4757 24.6661 35.1483 24.603C35.821 24.5399 35.7811 23.9033 37.2859 22.8091C38.5466 21.8728 39.857 21.8728 40.2158 21.9043C39.4634 18.1904 39.1196 17.0331 38.3971 15.8389C38.3074 15.6969 38.2327 15.5391 38.1729 15.3602C38.128 15.2497 37.9337 14.8973 37.6596 14.629C37.6596 14.629 37.1464 14.1871 36.1997 14.629C35.253 15.0709 34.4856 15.6758 34.4856 15.6758C34.4856 15.6758 34.9989 14.5659 35.8559 14.0398C35.7961 14.0082 35.7363 13.9609 35.6616 13.9293C35.1932 13.6453 34.67 13.3244 33.5887 13.4191C32.0391 13.5453 31.5458 14.2292 30.8682 15.1813C30.7336 15.3707 30.5841 15.5759 30.4147 15.7863C30.2353 16.023 30.0709 16.1966 29.9314 16.2966C30.0809 16.3597 30.2154 16.4386 30.35 16.5175C30.6489 16.0756 31.5657 14.7237 32.1388 14.3449C32.8314 13.903 33.9276 14.1082 33.9276 14.1082C33.9276 14.1082 32.951 14.2345 32.2135 15.013C31.4761 15.7916 31.491 16.3808 31.5508 17.012C31.5807 17.2803 31.6255 17.5223 31.6853 17.7117C31.7601 17.7748 31.8199 17.8221 31.8946 17.8695C32.632 18.364 33.0058 18.6638 34.4956 19.1057C35.9854 19.5476 35.7911 19.0426 37.0667 18.5481C38.3423 18.0536 39.1096 18.9584 39.1096 18.9584C39.1096 18.9584 38.2376 18.5639 37.2311 19.0689C36.2246 19.5739 36.0751 20.4156 36.0751 20.4156C36.0751 20.4156 35.4573 20.384 34.1966 19.7475C32.9211 19.111 32.4826 18.9216 31.6853 19.1425C30.8881 19.3635 29.189 19.474 29.189 19.474C29.189 19.474 30.903 18.7112 31.1422 18.4902C31.3814 18.2693 30.8582 17.759 30.1207 17.0594C29.7171 16.6806 29.0544 16.5017 28.5412 16.4228C28.4067 16.4071 28.1227 16.3913 27.744 16.4386C27.5198 16.4702 27.3553 16.486 27.2457 16.5017C27.171 16.5175 27.0962 16.5491 27.0065 16.5649C24.8241 17.233 24.5849 17.8484 24.3457 18.4692C24.286 18.6112 24.2411 18.7375 24.1664 18.8795C24.0617 19.0689 23.987 19.2898 23.9122 19.5003C23.7179 20.0105 23.5086 20.5787 22.9655 20.847C23.1001 20.989 23.2196 21.131 23.3392 21.2731C23.6531 21.0679 24.1066 20.6523 24.3756 20.0211C24.7942 19.0058 25.1579 18.1799 25.7309 17.8011C26.3189 17.4223 27.3105 17.3908 27.3105 17.3908C27.3105 17.3908 25.9552 17.6906 25.432 18.8532C24.9088 20.0158 24.6945 21.5677 24.6497 22.2831C24.6048 22.9985 24.9487 23.2195 24.9487 23.2195C25.2775 23.3615 25.6712 23.4404 26.1495 23.8718C26.9916 24.603 27.9234 25.9655 27.9234 25.9655C27.9234 25.9655 26.6129 24.6346 24.8689 24.0769C23.125 23.5351 21.2315 24.5399 21.2315 24.5399L22.0886 23.9033C22.9456 23.2668 23.7428 23.1721 23.698 23.0774C23.6681 22.9827 23.4289 22.5514 22.7214 21.7097C22.3477 21.2678 21.8942 20.8838 21.5504 20.6155C21.1767 20.363 20.7083 20.0579 19.7915 20.0421C18.4811 20.0105 17.0859 21.1836 16.5577 21.6623C16.5278 21.9306 16.5129 22.2042 16.4979 22.4725L16.5029 22.4883ZM13.3588 15.4233C13.598 16.8069 13.0897 21.9464 12.711 25.3132C12.7858 25.3447 12.8456 25.3921 12.9054 25.4236C12.9652 25.4394 13.1296 25.471 13.3239 25.5026L14.2407 16.8016L13.6528 25.5499H13.6677C14.0863 25.5972 14.5547 25.6604 15.0081 25.7551C15.3519 21.8359 15.5512 17.8011 15.4266 15.5022C14.8387 15.5022 13.4883 15.5022 13.4136 15.4549C13.3389 15.4076 14.739 15.1077 15.3818 14.9762C15.3668 14.8342 15.3519 14.6921 15.3369 14.5659L13.8172 14.8026L15.2622 14.1029C15.2174 13.8978 15.1725 13.74 15.0978 13.64C15.0679 13.5927 15.023 13.5295 14.9782 13.4822L13.4883 14.4817L14.6593 13.1508C14.5248 13.0087 14.3603 12.8667 14.1909 12.7089L13.304 13.8978L13.862 12.4196C11.3507 10.3101 6.08897 6.8802 5.23193 6.46462C5.17214 6.46462 4.94792 6.55931 4.65892 6.89072C4.52438 7.04854 4.4048 7.22214 4.31511 7.38522L12.133 12.7825L4.12078 7.81132C4.09089 7.90601 4.07594 7.98492 4.07594 8.03226C4.345 8.26899 5.33657 8.90551 6.22848 9.46313C10.0951 11.9093 13.0997 13.9241 13.3538 15.4181L13.3588 15.4233ZM7.01576 38.5855C7.21008 37.4913 7.43431 36.2656 7.96248 35.2977C8.1867 34.8874 8.40096 34.456 8.59529 34.0615C9.15335 32.9041 9.58685 31.9993 10.3542 31.7573C10.7279 31.6469 11.1365 31.7258 11.555 31.9941C12.1281 32.357 12.5317 32.7411 12.8506 33.0409C13.3787 33.5354 13.6179 33.7406 14.1112 33.6932C14.3803 33.6617 14.8636 33.183 15.312 32.7095C16.2438 31.7573 17.4945 30.4895 19.1786 30.4895C19.2982 30.4895 19.4178 30.4895 19.5374 30.5053C22.3178 30.7894 22.3178 32.2992 22.3178 34.7927V35.587C22.3327 36.7286 22.4224 37.6492 22.5121 38.3962C22.6466 39.7113 22.7513 40.5845 22.243 41.2684C22.0487 41.5367 22.0487 41.6314 22.0487 41.6314C22.0786 41.6472 22.243 41.7892 23.115 41.9155C23.5684 41.9786 23.8076 41.7576 23.9272 41.5683C24.1215 41.2369 24.1215 40.7424 23.9122 40.4267C23.2196 39.3641 23.5236 37.0284 23.8674 36.092C23.987 35.7606 23.8226 34.8716 23.6731 34.093C23.4937 33.1251 23.2994 32.1256 23.4489 31.3944C23.5983 30.6474 23.9471 30.1108 24.4554 29.8215C25.0882 29.4585 25.9602 29.5058 27.0414 29.9635C27.9881 30.358 29.0694 29.853 29.5079 29.1534C29.7022 28.8535 29.8517 28.3906 29.478 27.9645C28.4266 26.7914 25.8406 26.4863 23.7329 26.7283C21.8992 26.9334 16.4232 27.1386 15.4017 26.7598C14.9184 26.5862 14.1859 26.4915 13.583 26.4126C13.01 26.3495 12.726 26.3022 12.5616 26.2075L12.5317 26.1917C12.4569 26.1443 10.982 25.2395 9.55696 26.5073C8.65508 27.3174 8.40096 28.5221 8.08206 30.0634C7.85784 31.1261 7.59874 32.3518 7.07555 33.6196C6.62212 34.7138 6.35305 35.4766 6.12883 36.0815C5.74017 37.1757 5.51097 37.7807 4.80342 38.796C4.5194 39.2063 4.4895 39.6061 4.69878 39.9691C4.99774 40.4951 5.72024 40.8739 6.27831 40.7792C6.62212 40.7318 6.83638 39.543 7.01576 38.5908V38.5855ZM10.9521 32.6464C10.7279 32.5517 10.6083 32.5675 10.5635 32.5832C10.4588 32.6148 10.3691 32.6937 10.2645 32.7884C10.8525 34.4087 11.3308 35.8343 11.3308 35.1083C11.3308 34.7611 11.1514 33.6932 10.9571 32.6464H10.9521ZM8.8793 35.345C8.81951 35.4713 8.74477 35.5975 8.68498 35.7396C8.23155 36.5655 8.02227 37.7228 7.82794 38.7539C7.73825 39.2168 7.66352 39.6429 7.57383 40.0374C7.36455 42.8308 7.3197 45.5137 7.36455 47.3233C7.52898 43.5305 8.22158 38.5277 8.88429 35.3398L8.8793 35.345ZM13.2841 67.4133C13.2392 67.2713 13.1944 67.1293 13.1495 66.9872C12.6811 66.7032 12.0384 66.1613 11.6298 65.1618C11.1614 63.9887 10.5934 62.258 10.2745 61.2585C9.97551 60.9744 9.67156 60.6693 9.38754 60.3379C9.46229 60.8797 9.61177 61.5426 9.88582 62.3369C10.0054 62.6841 10.125 63.0366 10.2446 63.368C10.8624 65.1303 11.3408 66.5296 12.0932 67.1451C12.5765 67.5396 13.01 67.4923 13.2791 67.4133H13.2841ZM52.9019 62.7315C52.6477 62.7472 52.3288 62.763 52 62.763C51.9252 62.9524 51.8356 63.2049 51.7309 63.4785C51.4917 64.0676 51.2177 63.9046 51.0383 64.2412C50.8589 64.5779 51.1429 65.4932 51.1429 65.4932C51.1429 65.4932 50.8888 65.1145 50.6895 64.3675C50.5699 63.873 50.5998 63.226 50.6447 62.8104C50.3906 62.8261 50.1315 62.8419 49.8773 62.8577C49.7876 63.5574 49.6232 64.7778 49.4389 65.8089C49.4389 65.8089 49.1249 69.586 48.3875 71.6481C47.65 73.7102 47.077 74.2678 47.077 74.2678C47.077 74.2678 47.65 72.3635 47.9939 70.6486C47.5903 71.6954 47.1368 72.6792 46.7631 73.1736C46.1901 73.9206 45.8014 74.2836 45.5772 74.4414C45.6669 74.8833 45.6968 75.2831 45.6968 75.5514C45.9659 75.5988 46.4492 75.3778 46.4492 75.3778C46.4492 75.3778 45.921 75.9354 45.7865 76.1722C45.652 76.4089 45.3679 76.5825 45.4128 76.9823C45.4427 77.3768 45.3381 78.2659 45.3381 78.2659C45.3381 78.2659 45.1138 77.4084 44.9195 77.8871C44.7252 78.35 44.8448 78.2974 44.7551 78.5236C44.6654 78.7498 44.3515 78.9866 44.2119 79.3022C44.0625 79.602 44.0774 80.3017 44.0774 80.3017C44.0774 80.3017 43.8831 79.4442 43.6589 79.6336C43.4346 79.823 43.33 79.9019 43.1157 80.0755C42.9065 80.2333 42.9065 80.1228 42.7121 80.6805C42.5178 81.2381 42.169 81.7904 42.169 81.7904C42.169 81.7904 42.3335 81.0277 42.2587 80.8067C42.184 80.5858 42.1541 80.5384 41.9149 80.8225C41.6608 81.0908 41.1924 81.0119 41.2074 81.2486C41.2074 81.4853 40.9383 81.8693 40.9383 81.8693V81.6011C40.9383 81.3328 40.7739 80.8856 40.5347 81.2696C40.2955 81.6537 39.9766 81.9219 39.573 81.843C39.1694 81.7483 38.8804 81.6379 38.8206 81.9535C38.7608 82.2691 38.1729 82.9688 38.1729 82.9688C38.1729 82.9688 38.2924 82.5269 38.3821 82.206C38.4718 81.8851 38.3074 81.7273 38.0981 81.8115C37.9038 81.8904 37.5401 81.9851 37.1813 82.0166C36.8225 82.0482 36.1897 81.7799 36.1598 82.0008C36.1299 82.206 36.2346 83.3686 36.2346 83.3686C36.2346 83.3686 35.9057 82.4164 35.7811 82.1955C35.6616 81.9588 35.6018 81.9588 35.1932 82.085C34.8045 82.2113 33.8678 81.7694 33.7332 81.8799C33.5987 81.9745 33.4343 81.9903 33.2051 82.1639C33.1453 82.2113 33.0855 82.3217 33.0406 82.4322C33.0107 82.5427 32.9808 82.6532 32.9509 82.7478C32.936 82.6374 32.9061 82.5269 32.8613 82.4322C32.8164 82.3217 32.7716 82.2113 32.6968 82.1639C32.4726 81.9903 32.3082 81.9745 32.1687 81.8799C32.0291 81.7852 31.1173 82.2113 30.7087 82.085C30.3201 81.9588 30.2403 81.9588 30.1207 82.1955C30.0012 82.4322 29.6673 83.3686 29.6673 83.3686C29.6673 83.3686 29.772 82.2113 29.7421 82.0008C29.7122 81.7904 29.0943 82.064 28.7206 82.0166C28.3618 81.9851 27.9981 81.8904 27.8038 81.8115C27.6094 81.7326 27.445 81.8746 27.5198 82.206C27.5945 82.5374 27.729 82.9688 27.729 82.9688C27.729 82.9688 27.1411 82.2691 27.0813 81.9535C27.0215 81.6379 26.7375 81.7483 26.3289 81.843C25.9203 81.9377 25.6064 81.6537 25.3672 81.2696C25.128 80.8909 24.9636 81.3485 24.9636 81.6011V81.8693C24.9636 81.8693 24.6945 81.4906 24.6945 81.2486C24.6945 81.0066 24.2262 81.1066 23.987 80.8225C23.7329 80.5542 23.7179 80.5858 23.6432 80.8067C23.5684 81.0277 23.7329 81.7904 23.7329 81.7904C23.7329 81.7904 23.3891 81.2328 23.1897 80.6805C22.9904 80.1281 22.9954 80.2386 22.7861 80.0755C22.5769 79.9124 22.4872 79.823 22.243 79.6336C22.0188 79.4442 21.8245 80.3017 21.8245 80.3017C21.8245 80.3017 21.8394 79.602 21.6899 79.3022C21.5405 79.0023 21.2216 78.7446 21.1468 78.5236C21.0571 78.3027 21.1767 78.35 20.9824 77.8871C20.7881 77.4242 20.5638 78.2659 20.5638 78.2659C20.5638 78.2659 20.4592 77.3768 20.4891 76.9823C20.519 76.5877 20.2499 76.4089 20.1154 76.1722C19.9809 75.9354 19.4527 75.3778 19.4527 75.3778C19.4527 75.3778 19.9211 75.5988 20.2051 75.5514C20.2051 75.2831 20.235 74.8833 20.3247 74.4414C20.1004 74.2836 19.7218 73.9154 19.1388 73.1736C18.7651 72.6634 18.3116 71.6954 17.908 70.6486C18.2518 72.3635 18.8249 74.2678 18.8249 74.2678C18.8249 74.2678 18.2518 73.7102 17.5144 71.6481C16.777 69.586 16.463 65.8089 16.463 65.8089C16.2837 64.7936 16.1192 63.5521 16.0246 62.8577C15.7704 62.8419 15.5113 62.8261 15.2572 62.8104C15.3021 63.2049 15.332 63.873 15.2124 64.3675C15.033 65.1145 14.7589 65.4932 14.7589 65.4932C14.7589 65.4932 15.043 64.5727 14.8636 64.2412C14.6842 63.9098 14.4102 64.0676 14.171 63.4785C14.0663 63.2102 13.9767 62.9682 13.9019 62.763C13.573 62.763 13.2691 62.7472 13 62.7315C13.299 63.9203 13.9468 66.3981 14.3703 67.6343C14.9732 69.3966 15.4216 75.0148 15.4216 77.1454C15.4216 78.0817 15.2572 78.7814 15.1227 79.3338C14.9583 80.0176 14.8536 80.4595 15.0778 81.0645C15.332 81.7641 15.5911 82.0008 15.8452 82.2376C16.0545 82.427 16.2837 82.6479 16.478 83.0319C16.5527 83.1897 16.6574 83.4265 16.8069 83.7789C17.3649 85.1467 18.5508 87.9716 20.0257 89.3498C20.4941 89.7917 20.8977 90.2073 21.2415 90.5703C22.3526 91.7276 23.0901 92.4904 24.7593 92.8902C26.4435 93.3005 27.8287 93.4162 28.9548 93.5109C29.4232 93.5583 29.8567 93.5898 30.2503 93.6372C31.212 93.7634 32.2035 93.8266 32.6719 93.8424L33.4243 93.8266C33.9375 93.795 34.8095 93.7477 35.6665 93.6372C36.0552 93.5898 36.4937 93.5425 36.9621 93.5109C38.0882 93.4162 39.4734 93.29 41.1575 92.8902C42.8417 92.4799 43.5642 91.7171 44.6753 90.5703C45.0341 90.2073 45.4277 89.7917 45.8911 89.3498C47.366 87.9663 48.537 85.1414 49.11 83.7789C49.2595 83.4317 49.3492 83.1897 49.4389 83.0319C49.6332 82.6532 49.8574 82.427 50.0717 82.2376C50.3407 81.9851 50.5849 81.7589 50.839 81.0645C51.0632 80.4437 50.9586 80.0018 50.7942 79.3338C50.6596 78.7761 50.4952 78.0975 50.4952 77.1454C50.4952 75.0201 50.9486 69.3966 51.5465 67.6343C51.9651 66.3981 52.6129 63.9203 52.9168 62.7315H52.9019ZM20.8778 75.2884C20.8778 75.2884 20.8778 75.5882 20.9076 75.9407C20.9525 76.3037 21.0123 76.5141 21.087 76.2879C21.102 76.2248 21.102 76.1616 21.1169 76.0985C21.1917 75.5725 21.371 75.2095 21.5355 74.9728C21.5056 74.9412 21.4607 74.8939 21.4308 74.8623C21.2814 74.6571 21.1767 74.3994 21.1169 74.1311C21.102 74.1784 21.087 74.21 21.0721 74.2573C20.9375 74.6203 20.8927 75.0043 20.8778 75.2884ZM21.1917 72.2846C20.6784 71.9532 20.2001 71.222 20.2001 69.9805C20.2001 69.7911 20.215 69.6017 20.23 69.3913C19.5523 69.3124 18.8896 69.0283 18.3515 68.7232C18.8647 70.233 19.5224 71.9006 20.0058 72.5161C20.3645 72.9948 20.6236 73.2631 20.7881 73.4209C20.9077 73.2473 21.0422 73.1526 21.1618 73.0895C21.2066 72.7896 21.2066 72.5003 21.1917 72.2794V72.2846ZM20.3346 67.7763C20.0058 67.7605 19.5523 67.6659 19.0591 67.3502C18.5658 67.0346 18.0376 66.619 17.644 66.2876C17.6589 66.3665 17.6738 66.4612 17.6888 66.5401C17.7336 66.7137 17.7785 66.9189 17.8383 67.1451C18.1671 67.4134 19.2384 68.2235 20.2898 68.3339C20.3197 68.1603 20.3346 67.971 20.3346 67.7763ZM21.7348 73.4156C21.6451 73.7944 21.7198 74.21 21.9142 74.4625C21.959 74.5256 22.0188 74.573 22.0786 74.6045C22.1384 74.11 22.243 73.6366 22.2879 73.4156C22.3028 73.3209 22.3178 73.242 22.3327 73.1631C22.3327 73.1 22.3178 72.7686 22.0786 72.5108C21.9291 72.353 21.8544 72.4004 21.8245 72.4635C21.8245 72.7476 21.8095 73.0842 21.7348 73.4156ZM21.6451 76.8613C21.6451 76.8929 21.6451 77.4189 21.7348 77.6083C21.8245 77.8135 21.8095 77.8924 21.8693 77.9871C21.9291 78.0975 21.9889 78.066 22.0487 77.8924C22.0636 77.8608 22.0637 77.845 22.0786 77.8135C22.0935 77.6399 22.1085 77.4663 22.1384 77.2874C22.2131 76.7613 22.3776 76.4299 22.542 76.209C22.3477 76.0512 22.1832 75.8618 22.1234 75.6829C22.0935 75.5882 22.0786 75.462 22.0636 75.3357C21.9441 75.5093 21.8245 75.7987 21.7497 76.209C21.6899 76.4615 21.675 76.6877 21.6451 76.8613ZM23.5236 73.5892C23.5236 73.5892 23.5086 73.0158 23.3293 72.8896C23.1499 72.7791 22.9556 73.3525 22.9406 73.3999C22.9257 73.463 22.9257 73.5261 22.9107 73.5892C22.7164 74.4151 22.6118 75.2568 22.7014 75.462C22.7463 75.5567 23.0004 75.825 23.3492 75.9565C23.4389 75.988 23.5884 76.0354 23.7229 76.0196C23.6631 75.7513 23.5734 75.3831 23.4987 74.7992C23.4389 74.4046 23.4688 73.9733 23.5286 73.5945L23.5236 73.5892ZM23.6581 76.6667C23.4937 76.6667 23.3143 76.6193 23.115 76.5562C23.1001 76.5562 23.0851 76.5404 23.0702 76.5404C22.9655 76.6667 22.8011 76.9349 22.7413 77.4137C22.6815 77.8555 22.6666 78.3185 22.6815 78.6657C22.6815 78.6814 22.7413 79.4758 22.8908 79.6178C23.0403 79.7599 23.2495 79.5231 23.3592 79.1917C23.3891 78.6025 23.4339 77.845 23.4638 77.4294C23.4787 77.0507 23.5684 76.8245 23.6581 76.6667ZM30.3051 80.8435C30.3051 80.8435 30.2752 81.4327 30.8482 81.559C31.4212 81.6694 31.8099 81.4169 32.1089 80.8593C32.3032 80.4806 32.2583 79.8282 32.1985 79.4127C32.1238 79.2075 32.0341 79.0812 31.9743 79.0181C31.8099 79.0497 31.6305 79.0655 31.4312 79.0655H31.4163C31.0874 79.0497 30.7386 79.0023 30.4097 78.8919C30.35 78.9708 30.2752 79.1917 30.2902 79.6546C30.3051 80.1176 30.3051 80.5279 30.3051 80.8435ZM32.2583 78.1606C32.4975 77.6346 32.4228 77.1138 32.3331 76.5246C32.2882 76.2721 32.2583 75.9986 32.2434 75.7303V75.6198C32.2434 75.6198 32.0341 74.3362 31.8846 73.5419C31.7352 72.7475 30.6091 72.4319 30.3948 72.9369C30.1805 73.4419 29.9264 74.6676 29.9264 74.6676V74.6834C29.8965 74.9517 29.8218 75.2568 29.747 75.5725C29.5826 76.2879 29.3584 77.1769 29.5826 77.6662C29.747 78.0291 30.6489 78.4132 31.4462 78.4289C31.8647 78.4289 32.1836 78.3185 32.2583 78.1606ZM28.9797 77.8924C28.9498 77.8292 28.9349 77.7661 28.9199 77.7188C28.8153 77.8766 28.6957 77.9871 28.5462 78.066C28.3967 78.1449 28.1874 78.1606 27.9732 78.1606H28.033C28.033 78.1606 27.8685 78.2869 27.8984 78.9866C27.9134 79.5126 27.9283 80.0176 27.9433 80.4332C27.9433 80.4332 28.0479 81.5274 28.3967 81.559C28.7405 81.5905 29.2537 81.1486 29.4481 80.6226C29.5677 80.307 29.6275 79.7493 29.6574 79.3232C29.6723 79.0392 29.6723 78.813 29.6574 78.7498C29.6275 78.6709 29.5976 78.592 29.5826 78.5289C29.3135 78.3395 29.0843 78.1343 28.9797 77.8924ZM28.6209 75.462C28.606 75.1464 28.5462 74.9517 28.4864 74.7308C28.4715 74.6992 28.4715 74.6519 28.4565 74.6203C28.4117 74.4151 28.3519 74.1784 28.322 73.8575C28.2472 73.6524 28.1426 73.4788 27.9184 73.3946C27.4051 73.221 27.2258 73.5524 27.1062 74.0627V74.0785C27.0464 74.3625 26.9717 74.6676 26.867 74.9517C26.3239 76.4615 26.3837 76.9192 26.4285 77.0454C26.5332 77.2348 27.3603 77.5399 27.9184 77.5399H27.9931C28.0978 77.5399 28.2024 77.5241 28.2771 77.4926C28.4864 77.3663 28.7156 76.7929 28.6209 75.462ZM26.1246 77.5872C26.0797 77.6977 26.0199 77.9029 26.005 78.2869C25.9901 78.7656 25.9602 79.2233 25.9153 79.602C25.9153 79.602 25.9602 80.9487 26.2591 81.2539C26.573 81.5695 27.1311 80.9224 27.2208 80.5542C27.3105 80.1912 27.3105 80.0124 27.3105 80.0124C27.2955 79.6967 27.2955 79.3443 27.2806 78.9971C27.2656 78.6183 27.2955 78.329 27.3703 78.0923C27.1012 78.0449 26.8421 77.966 26.6179 77.8713C26.4086 77.7766 26.2442 77.6819 26.1196 77.5872H26.1246ZM26.0648 75.3831C26.0199 75.1621 25.9751 74.8412 25.9452 74.494V74.4783C25.9452 74.4467 25.9452 74.4151 25.9303 74.3836C25.9004 74.1942 25.8406 73.826 25.706 73.6208C25.5117 73.3367 24.8938 72.9685 24.7145 72.8738C24.5351 72.7791 24.2959 73.1263 24.1265 73.747C24.0817 74.0627 24.0667 74.4151 24.0966 74.7308C24.1713 75.3357 24.261 75.6987 24.3358 75.967C24.3806 76.1722 24.4255 76.3615 24.4554 76.572C24.5451 76.6509 24.9387 76.7929 25.3572 76.7771C25.5964 76.7771 25.7309 76.7298 25.8107 76.6824C25.8107 76.351 25.9153 75.9197 26.0648 75.3831ZM24.0667 77.4768C24.0368 77.8713 23.992 78.6183 23.9621 79.2075C23.9621 79.2075 23.992 79.9545 24.1265 80.1439C24.2461 80.349 24.5152 80.7962 24.7743 80.5542C25.0334 80.3122 25.1779 79.9966 25.2875 79.602C25.3174 79.2233 25.3622 78.7446 25.3772 78.2343C25.3921 77.8871 25.437 77.6136 25.5117 77.3926C25.422 77.3926 25.3323 77.4084 25.2426 77.4084C25.0035 77.4084 24.7743 77.3611 24.5949 77.3137C24.4006 77.2506 24.2511 77.1874 24.1415 77.1085C24.1116 77.2032 24.0817 77.3137 24.0667 77.4715V77.4768ZM41.8352 73.747C41.6708 73.1263 41.4316 72.7949 41.2472 72.8738C41.0678 72.9685 40.45 73.3525 40.2557 73.6208C40.1062 73.826 40.0464 74.1942 40.0314 74.3836C40.0314 74.4151 40.0314 74.4467 40.0165 74.4783V74.494C39.9716 74.8412 39.9417 75.1621 39.8969 75.3831C40.0613 75.9249 40.151 76.351 40.166 76.6824C40.2407 76.7298 40.3752 76.7771 40.6194 76.7771C41.0579 76.7929 41.4316 76.6667 41.5213 76.572C41.5362 76.3668 41.5811 76.1932 41.6409 75.967C41.7156 75.6829 41.7903 75.3305 41.88 74.7308C41.9099 74.4151 41.88 74.0627 41.8352 73.747ZM41.8202 77.1138C41.7156 77.1927 41.5661 77.2558 41.3668 77.319C41.1874 77.3663 40.9632 77.3979 40.719 77.4137C40.6294 77.4137 40.5397 77.4137 40.45 77.3979C40.5247 77.6188 40.5696 77.8924 40.5845 78.2396C40.5995 78.7498 40.6443 79.2233 40.6742 79.6073C40.7788 79.9861 40.9283 80.3227 41.1874 80.5595C41.4415 80.7962 41.7156 80.3385 41.8352 80.1491C41.9548 79.944 41.9996 79.2128 41.9996 79.2128C41.9697 78.6394 41.9398 77.8976 41.895 77.482C41.88 77.3242 41.8501 77.2138 41.8202 77.1191V77.1138ZM39.852 77.5872C39.7325 77.6977 39.568 77.7924 39.3538 77.8713C39.1295 77.966 38.8704 78.0449 38.6014 78.0923C38.6761 78.329 38.706 78.6183 38.6911 78.9971C38.6761 79.3443 38.6612 79.6967 38.6612 80.0124C38.6612 80.0124 38.6612 80.2017 38.7509 80.5542C38.8405 80.9172 39.3986 81.5537 39.7125 81.2539C40.0264 80.9382 40.0563 79.602 40.0563 79.602C40.0264 79.2233 39.9816 78.7761 39.9667 78.2869C39.9368 77.9081 39.8919 77.6977 39.8471 77.5872H39.852ZM39.0847 74.9359C38.9801 74.6519 38.9053 74.3468 38.8455 74.0627V74.0469C38.7259 73.5366 38.5466 73.2052 38.0333 73.3788C37.8241 73.4577 37.7045 73.6313 37.6297 73.8417C37.5998 74.1732 37.555 74.4151 37.4952 74.6045C37.4803 74.6361 37.4803 74.6834 37.4653 74.715C37.4055 74.9359 37.3607 75.1411 37.3308 75.4462C37.2411 76.7613 37.4653 77.3505 37.6746 77.4452C37.7493 77.4768 37.839 77.4926 37.9586 77.4926H38.0333C38.5914 77.4926 39.4186 77.1927 39.5232 76.9981C39.568 76.9034 39.6278 76.4562 39.0847 74.9359ZM37.0418 77.6977C37.0268 77.7608 37.0119 77.824 36.982 77.8713C36.8773 78.108 36.6681 78.3343 36.3791 78.5078C36.3492 78.571 36.3193 78.6499 36.3043 78.7288C36.2894 78.7919 36.2894 79.0286 36.3043 79.3022C36.3342 79.7283 36.394 80.2859 36.5136 80.6015C36.7079 81.1276 37.2212 81.5695 37.565 81.5379C37.9088 81.5064 38.0184 80.4122 38.0184 80.4122C38.0333 80.0018 38.0483 79.4916 38.0632 78.9655C38.0931 78.2501 37.9287 78.1396 37.9287 78.1396C37.9287 78.1396 37.9437 78.1554 37.9885 78.1396C37.7643 78.1396 37.5699 78.108 37.4155 78.0449C37.266 77.9818 37.1464 77.8555 37.0418 77.6977ZM36.2296 75.5409C36.1549 75.2253 36.0801 74.9202 36.0502 74.6519V74.6361C36.0502 74.6361 35.811 73.4156 35.5818 72.9054C35.3726 72.3951 34.2415 72.716 34.092 73.5103C33.9425 74.3047 33.7332 75.5882 33.7332 75.5882V75.6987C33.7183 75.967 33.6734 76.2405 33.6435 76.4931C33.5539 77.098 33.4791 77.603 33.7183 78.1291C33.793 78.3027 34.1069 78.3974 34.5604 78.3816C35.3576 78.3658 36.2595 77.9871 36.4239 77.6188C36.6182 77.1401 36.409 76.2511 36.2296 75.5409ZM35.6715 79.6389C35.6865 79.1759 35.6117 78.9708 35.5519 78.8761C35.2231 78.9708 34.8743 79.0339 34.5454 79.0497H34.5305C34.3361 79.0497 34.1568 79.0339 33.9874 79.0023C33.9276 79.0655 33.8379 79.1917 33.7631 79.3969C33.7033 79.7914 33.6585 80.4595 33.8528 80.8435C34.1518 81.4011 34.5454 81.6694 35.1135 81.5432C35.6865 81.4327 35.6566 80.8278 35.6566 80.8278C35.6566 80.5279 35.6566 80.1123 35.6715 79.6389ZM42.4829 74.8097C42.4082 75.3831 42.3335 75.7461 42.2587 76.0301C42.4082 76.0301 42.5427 75.9986 42.6324 75.967C42.9762 75.8407 43.2353 75.5725 43.2802 75.4725C43.3549 75.2673 43.2652 74.4257 43.0709 73.5998C43.056 73.5366 43.041 73.4735 43.041 73.4104C43.0261 73.363 42.8317 72.7896 42.6524 72.9001C42.473 73.0106 42.458 73.5998 42.458 73.5998C42.5029 73.9627 42.5328 74.3941 42.4879 74.8044L42.4829 74.8097ZM43.2204 77.3979C43.1456 76.9192 42.9962 76.6667 42.8915 76.5246C42.8766 76.5246 42.8616 76.5404 42.8467 76.5404C42.6524 76.6193 42.473 76.6509 42.3036 76.6509C42.3932 76.8087 42.4829 77.0454 42.5128 77.3979C42.5427 77.8082 42.5876 78.571 42.6175 79.1602C42.7221 79.4916 42.9314 79.7336 43.0858 79.5863C43.2353 79.4442 43.2951 78.6499 43.2951 78.6341C43.2951 78.2869 43.2951 77.824 43.2204 77.3979ZM44.1522 72.4793C44.1073 72.4161 44.0326 72.3688 43.898 72.5266C43.6589 72.7791 43.6439 73.1 43.6439 73.1789C43.6589 73.2578 43.6589 73.3367 43.6888 73.4314C43.7336 73.6366 43.8532 74.1311 43.898 74.6203C43.9578 74.5887 44.0176 74.5414 44.0625 74.4783C44.2568 74.2258 44.3315 73.8102 44.2418 73.4314C44.1522 73.0842 44.1372 72.7476 44.1522 72.4793ZM43.4297 76.209C43.5791 76.4299 43.7585 76.7666 43.8333 77.2874C43.8632 77.461 43.8781 77.6346 43.8931 77.8135C43.8931 77.845 43.908 77.8608 43.923 77.8924C43.9678 78.066 44.0425 78.0975 44.1023 77.9871C44.1621 77.8766 44.1472 77.7977 44.2369 77.6083C44.3265 77.4189 44.3266 76.8929 44.3266 76.8613C44.3116 76.6877 44.2817 76.4825 44.2369 76.209C44.1771 75.7987 44.0425 75.5093 43.923 75.3357C43.908 75.462 43.8931 75.5882 43.8632 75.6829C43.7884 75.8565 43.6389 76.0301 43.4247 76.209H43.4297ZM46.9026 67.366C46.4044 67.6816 45.9559 67.7605 45.6271 67.7921C45.6271 67.9815 45.642 68.1709 45.6569 68.3497C46.7083 68.2235 47.7746 67.4291 48.1085 67.1608C48.1683 66.9399 48.228 66.7347 48.2579 66.5559C48.2729 66.477 48.2878 66.3981 48.3028 66.3034C47.9291 66.619 47.4009 67.0504 46.9026 67.366ZM44.785 72.2846C44.77 72.5056 44.77 72.7949 44.8149 73.1105C44.9344 73.1737 45.054 73.2683 45.1886 73.4419C45.353 73.2841 45.6071 73.0158 45.9709 72.5371C46.4392 71.9164 47.1119 70.2488 47.6251 68.7443C47.082 69.0441 46.4392 69.3335 45.7466 69.4124C45.7616 69.6175 45.7765 69.8069 45.7765 70.0015C45.7765 71.222 45.2783 71.9532 44.785 72.2899V72.2846ZM44.5458 74.8412C44.5159 74.8886 44.4711 74.9202 44.4412 74.9517C44.5906 75.1884 44.77 75.5725 44.8597 76.0775C44.8747 76.1406 44.8747 76.2037 44.8896 76.2669C44.9643 76.4878 45.0241 76.2826 45.069 75.9197C45.1138 75.5567 45.0989 75.2673 45.0989 75.2673C45.0839 74.9675 45.0241 74.5993 44.9195 74.2363C44.9046 74.1889 44.8896 74.1416 44.8747 74.11C44.7999 74.3783 44.6953 74.6361 44.5458 74.8412ZM56.5741 60.3326C56.2901 60.6641 55.9862 60.985 55.6872 61.2532C55.3733 62.2527 54.7853 63.9835 54.3319 65.1566C53.9433 66.1561 53.2805 66.7137 52.8122 66.982C52.7673 67.124 52.7225 67.2661 52.6776 67.4081C52.9318 67.487 53.3702 67.5186 53.8486 67.124C54.601 66.4875 55.0793 65.1092 55.6972 63.3469C55.8168 63.0155 55.9363 62.6631 56.0559 62.3159C56.3549 61.5373 56.4944 60.8692 56.5692 60.3326H56.5741ZM57.8647 54.2514C57.8647 54.2514 58.1786 52.3945 56.7087 51.2214C55.2188 50.0483 54.1226 44.8561 53.2506 42.5993C52.3787 40.3268 50.9935 38.554 50.9935 38.554C50.9935 38.554 52.4235 39.6797 52.8421 40.2216C53.2158 40.7161 52.9617 38.2226 53.729 35.2188C53.6841 35.0925 53.6393 35.0136 53.5795 34.9347C53.2506 34.4244 53.1909 34.0141 53.6692 32.7621C54.0579 31.7468 54.0877 30.8262 53.7439 30.2844C53.6094 30.0792 53.445 29.9688 53.2606 29.9688C53.0513 29.9688 52.7324 30.0319 52.4036 30.095C51.5316 30.2686 50.3457 30.5053 49.3043 30.0003C48.9306 29.8267 48.6416 29.6531 48.4024 29.5216C47.8145 29.1902 47.6052 29.0587 46.8678 29.1429C46.3844 29.206 45.9808 29.0639 45.7865 28.7641C45.7715 28.7325 45.7566 28.7167 45.7566 28.6852C42.2986 28.5905 38.5117 28.4958 35.9356 28.4327L30.614 28.4169H30.5542C30.5841 28.8272 30.4795 29.2428 30.2254 29.6373C29.5776 30.6368 28.1227 31.3365 26.7674 30.7789C25.9253 30.4317 25.2775 30.3686 24.8739 30.6053C24.5899 30.7631 24.3906 31.0998 24.286 31.589C24.1664 32.1466 24.3607 33.0988 24.5102 33.9405C24.6896 34.8611 24.839 35.6712 24.7195 36.2446C29.3634 36.1657 29.5477 39.9743 29.5477 39.9743C29.5477 39.9743 28.8551 38.5592 27.3055 37.3703C26.2691 36.576 25.2476 36.3551 24.7045 36.2919C24.6896 36.3393 24.6896 36.3866 24.6597 36.434C24.3308 37.3072 24.1763 39.2904 24.6148 39.9585C24.6896 40.069 24.7493 40.1953 24.7942 40.3373C25.0932 40.4162 25.3672 40.5109 25.6213 40.6214C28.013 41.6367 29.3634 44.9561 29.3634 44.9561C29.8168 44.3038 31.1522 43.9408 31.1522 43.9408L30.325 44.7825C29.4979 45.6241 29.6474 46.6079 29.5129 48.8647C29.3484 51.0846 27.9333 52.0578 27.9333 52.0578L28.596 50.5638C29.2737 49.0698 28.9249 47.2444 28.596 48.2281C28.2821 49.1961 27.9034 51.1004 26.01 52.4366C24.1165 53.7675 21.1518 53.8674 21.1518 53.8674C21.1518 53.8674 22.9855 53.5202 24.7892 52.0894C26.593 50.6743 26.8919 48.8804 26.8919 48.8804C26.8919 48.8804 25.7957 50.911 24.261 51.5633C22.7264 52.2314 22.2181 52.9784 19.9759 53.3572C17.7336 53.7359 15.4216 52.1998 15.4216 52.1998L16.0844 52.9311C16.7471 53.6623 19.3331 54.2462 19.3331 54.2462C19.3331 54.2462 18.0077 54.1515 16.9115 53.9463C15.8003 53.7412 14.7739 53.4518 13.6179 51.1214C12.4619 48.7857 12.5964 44.2301 13.1196 43.2306C13.6478 42.2311 15.0878 41.7366 17.0161 40.7371C18.1123 40.1795 19.9609 39.8796 21.7846 39.9112C21.7996 39.5324 21.7398 39.0695 21.68 38.4803C21.6052 37.7175 21.5006 36.7496 21.4857 35.5765V34.7822C21.4857 32.3202 21.4857 31.589 19.4577 31.3681C17.9828 31.2102 16.8268 32.3834 15.895 33.3355C15.2473 33.9878 14.754 34.5086 14.1959 34.556C13.3239 34.6349 12.8555 34.2088 12.3024 33.6827C12.0932 33.4933 11.864 33.2724 11.58 33.062C11.6995 33.4092 11.8341 33.809 11.9686 34.2351C13.0947 37.6492 12.721 40.7581 13.1396 40.2216C13.5581 39.685 14.9881 38.554 14.9881 38.554C14.9881 38.554 13.588 40.332 12.731 42.5993C11.859 44.8561 10.7628 50.0588 9.27294 51.2214C7.79805 52.3945 8.11694 54.2514 8.11694 54.2514C8.0422 56.3609 9.12346 58.2021 9.25799 58.4441C10.3094 60.0486 11.7992 61.3795 12.6562 61.6215C12.9402 61.7004 13.5581 61.7162 14.2059 61.7162C14.5048 61.7162 14.8387 61.732 15.1825 61.7477C14.7639 61.6373 14.2657 61.4952 13.6777 61.3532C11.8889 60.8745 10.6681 58.8755 10.6681 58.8755C10.6681 58.8755 11.1664 59.4962 12.8954 60.2748C14.6244 61.0376 15.1825 60.5115 14.6244 60.401C14.0663 60.2906 12.0982 59.8434 10.9571 58.4652C9.81606 57.0658 9.6018 55.3562 9.6018 55.3562C9.6018 55.3562 9.93066 56.4661 11.0468 57.513C12.1579 58.5598 14.0713 59.2437 16.2189 59.2122C18.3864 59.1806 20.6685 60.4484 20.6685 60.4484L19.8862 59.7487C19.1039 59.0491 17.7336 58.3494 17.7336 58.3494C17.7336 58.3494 18.4412 58.5072 20.1403 59.27C21.8245 60.0328 24.2461 62.4474 24.4255 65.1776C24.6048 67.9078 24.0219 71.2115 24.0219 71.2115C24.0219 71.2115 22.9855 70.8169 23.0602 70.2435C23.12 69.6701 23.3143 67.2292 22.5021 65.0514C21.6899 62.8735 19.3132 61.874 19.3132 61.874C19.3132 61.874 21.2365 62.9208 21.8843 65.6353C22.532 68.3655 21.8394 70.2067 21.8394 70.2067C21.8394 70.2067 22.0487 68.5075 21.4657 65.8247C21.2863 64.983 20.8628 64.3149 20.3695 63.7783C21.5704 65.6826 21.4059 67.6027 21.2714 69.0178C21.2415 69.3808 21.2116 69.7332 21.2116 70.0173C21.2116 70.5592 21.3312 70.9221 21.4657 71.1431C21.4807 71.1589 21.7348 71.3956 22.0238 71.3798C22.3078 71.3482 22.552 71.4903 22.7164 71.6797C22.8808 71.869 23.7827 72.1058 24.0717 71.8375C24.3607 71.5692 24.5999 70.9327 24.5999 70.9327C24.5999 70.9327 24.6896 71.6165 24.6597 71.9006C24.6447 72.1689 25.0782 72.2478 25.6363 72.4109C26.1943 72.5739 26.0399 72.3004 26.1346 71.8848C26.2242 71.4903 26.2392 71.4219 26.2392 71.4219C26.2392 71.4219 26.7225 72.2636 27.0663 72.5161C27.4101 72.7844 27.8038 72.6108 27.9981 72.8002C28.1924 73.0053 28.7505 72.0847 28.7654 71.9742C28.7953 71.8638 28.9598 71.4482 28.9598 71.4482C28.9598 71.4482 28.885 72.495 28.8402 72.7791C28.7953 73.0632 29.5776 72.0637 30.1506 72.0479C30.7237 72.0321 31.5657 71.9532 31.9843 72.3793C32.4028 72.8054 32.4028 72.2531 32.4228 71.7112C32.4377 71.1852 32.4228 70.6959 32.4228 70.6959C32.4228 70.6959 32.8613 71.6481 32.9808 72.2531C33.0855 71.6481 33.5389 70.6959 33.5389 70.6959V71.7112C33.5539 72.2373 33.5539 72.7896 33.9774 72.3793C34.3959 71.9532 35.238 72.0479 35.811 72.0479C36.3841 72.0637 37.1663 73.0632 37.1215 72.7791C37.0767 72.495 37.0019 71.4482 37.0019 71.4482C37.0019 71.4482 37.1664 71.8585 37.1962 71.9742C37.2261 72.0847 37.7693 73.0053 37.9636 72.8002C38.1579 72.595 38.5515 72.7844 38.8954 72.5161C39.2392 72.2478 39.7225 71.4219 39.7225 71.4219C39.7225 71.4219 39.7225 71.4692 39.8271 71.8848C39.9168 72.2794 39.7673 72.5529 40.3254 72.4109C40.8835 72.2531 41.317 72.1741 41.302 71.9006C41.2871 71.627 41.3618 70.9327 41.3618 70.9327C41.3618 70.9327 41.6159 71.585 41.89 71.8375C42.174 72.1058 43.0609 71.869 43.2453 71.6797C43.4097 71.4903 43.6638 71.3482 43.9379 71.3798C44.207 71.4114 44.481 71.1589 44.496 71.1431C44.6305 70.9221 44.7501 70.5539 44.7501 70.0173C44.7501 69.7332 44.7202 69.3808 44.6903 69.0178C44.5707 67.6027 44.3913 65.6826 45.5922 63.7783C45.0939 64.3201 44.6753 64.983 44.496 65.8247C43.923 68.5075 44.1223 70.2067 44.1223 70.2067C44.1223 70.2067 43.4297 68.3655 44.0774 65.6353C44.7252 62.9051 46.6485 61.874 46.6485 61.874C46.6485 61.874 44.2867 62.8735 43.4596 65.0514C42.6474 67.224 42.8267 69.6701 42.9015 70.2435C42.9613 70.8169 41.9398 71.2115 41.9398 71.2115C41.9398 71.2115 41.3519 67.9236 41.5362 65.1776C41.7156 62.4474 44.1372 60.017 45.8214 59.27C47.5055 58.5072 48.228 58.3494 48.228 58.3494C48.228 58.3494 46.8578 59.0491 46.0755 59.7487L45.2932 60.4484C45.2932 60.4484 47.5952 59.1648 49.7428 59.2122C51.8953 59.2437 53.8037 58.5756 54.9149 57.513C56.026 56.4661 56.3599 55.3562 56.3599 55.3562C56.3599 55.3562 56.1357 57.0869 55.0046 58.4652C53.8635 59.8645 51.8754 60.2906 51.3373 60.401C50.7792 60.5115 51.3373 61.0533 53.0663 60.2748C54.7953 59.512 55.2936 58.8755 55.2936 58.8755C55.2936 58.8755 54.0927 60.8745 52.284 61.3532C51.696 61.511 51.2027 61.6373 50.7792 61.7477C51.123 61.732 51.4569 61.732 51.7558 61.7162C52.4036 61.7004 53.0165 61.7004 53.3055 61.6215C54.1625 61.3848 55.6673 60.0486 56.7037 58.4441C56.8681 58.2074 57.9494 56.3662 57.8746 54.2514H57.8647ZM55.3982 31.9993C55.5776 31.0629 55.7719 30.095 55.8018 28.9693C55.8467 27.1596 55.2886 26.239 54.8102 25.9865C54.4664 25.8129 54.1774 25.9865 53.9831 26.1443C52.8122 27.1912 49.6382 27.6857 49.5036 27.7015H49.4588C47.5803 27.7488 46.8578 28.0802 46.5887 28.2749H46.7382C47.7298 28.1486 48.1533 28.3853 48.7662 28.7536C48.9904 28.8798 49.2645 29.0376 49.6083 29.2165C50.4055 29.5953 51.412 29.4059 52.2093 29.2481C52.5979 29.1692 52.9318 29.106 53.2307 29.106C53.6991 29.106 54.1176 29.3585 54.4017 29.8215C54.8999 30.6 54.8999 31.8047 54.4017 33.1093C54.013 34.1246 54.1027 34.2508 54.2372 34.456C54.4465 34.7716 54.6259 35.1241 54.596 35.9027C54.5511 37.5545 54.8651 39.6008 55.5427 40.1584C55.7071 40.3005 55.8865 40.332 56.1157 40.2689C56.4894 40.1584 56.5692 40.0006 56.5991 39.9533C56.7934 39.5272 56.3599 38.5224 55.9363 37.5703C55.742 37.1441 55.5477 36.697 55.3783 36.2393C54.8352 34.7927 55.1092 33.446 55.3932 32.0151L55.3982 31.9993ZM56.8731 30.6947C56.7834 30.3949 56.6788 30.1213 56.5891 29.8688C56.5144 30.7263 56.3499 31.4891 56.2154 32.1887C56.2004 32.2518 56.2004 32.2992 56.1855 32.3465C56.9827 33.4407 58.3679 41.7103 58.6221 47.3181C58.7267 43.32 58.353 35.1925 56.8781 30.7L56.8731 30.6947ZM59.2499 37.9648C64.3921 35.9658 67.8202 30.458 67.2322 24.4399C66.8884 20.9943 65.3089 17.8853 62.7527 15.6916C60.5404 13.8031 57.8348 12.7878 55.0245 12.7878C54.586 12.7878 54.1675 12.8036 53.729 12.8509C50.4653 13.2139 47.5205 14.8815 45.4427 17.5802C43.3699 20.2788 42.4182 23.6614 42.752 27.107C42.767 27.2491 42.7819 27.3911 42.7968 27.5331C43.2503 27.5489 43.6987 27.5647 44.1671 27.5647C43.9877 25.8497 44.4212 24.8818 44.7551 24.6451C45.0989 24.361 53.8087 24.9923 54.0479 25.087C54.0628 25.087 54.0628 25.1027 54.0628 25.1027C54.4216 24.9765 54.8152 24.9923 55.174 25.1817C55.4281 25.3079 55.6573 25.4973 55.8367 25.7551C57.3415 25.613 64.0034 28.5326 64.4369 28.9166C64.9352 29.327 64.9352 30.3791 64.0483 32.2992C63.1464 34.2351 60.5753 35.9816 59.6585 35.2661C59.4342 35.0925 59.0705 34.4402 58.6519 33.5512C58.8911 34.9347 59.0904 36.4392 59.2549 37.9648H59.2499ZM61.9256 37.807C62.4239 38.5855 62.9919 39.5061 62.9919 39.5061C62.9919 39.5061 62.4488 38.3015 62.2545 37.586C62.1349 37.6492 62.0302 37.7281 61.9256 37.807ZM67.2771 42.0154C66.8585 42.1101 66.42 42.2048 65.9517 42.2837C66.5994 42.6467 67.0628 42.9518 67.0628 42.9518L66.1161 42.4889C65.9816 42.4257 65.847 42.3784 65.6975 42.3311C65.1843 42.41 64.6611 42.4573 64.118 42.4573C64.3273 42.6467 64.6312 42.8992 65.0348 43.2201C65.8919 43.8882 67.5013 44.6194 67.8451 44.7614C67.4565 44.6194 65.3338 43.8724 65.1843 43.8093C65.3637 43.8724 67.8003 46.9866 67.8003 46.9866C67.8003 46.9866 65.6477 44.7982 63.1065 42.431C62.4737 42.3679 61.8459 42.2574 61.228 42.0522C61.4821 42.3363 61.7562 42.6572 61.8309 42.8466C61.9954 43.2411 62.4338 46.0871 62.4338 46.0871C62.4338 46.0871 62.3591 43.42 62.6431 43.5462C62.9271 43.6725 63.4703 44.309 63.7543 44.8929C64.0383 45.4663 64.7608 47.6389 64.7608 47.6389L64.6263 45.419C64.6263 45.419 67.4365 47.7389 68.5826 48.5122C69.7236 49.2908 69.8581 49.3697 69.8581 49.3697C69.8581 49.3697 63.8739 49.5117 60.9889 46.8919C60.5205 46.4658 60.0571 45.9556 59.6186 45.4137V46.2081C59.8727 46.4921 60.1468 46.7657 60.4009 47.0024C62.4588 48.9067 65.3787 49.3223 67.1226 49.5748C67.4066 49.6222 67.6657 49.6537 67.875 49.6853L67.9199 49.7011C68.747 49.8431 69.8731 50.0325 70.192 49.922C70.1621 49.7169 70.1621 49.4591 70.1621 49.1435C70.1471 48.2229 70.1172 46.7131 69.4994 45.9503H69.4695C69.4695 45.9503 69.4695 45.9345 69.4844 45.9187C69.4844 45.9187 69.4844 45.903 69.4695 45.903C69.2901 45.6978 68.3882 44.7456 67.8451 44.5563C67.4714 44.4142 67.9498 44.4616 68.5078 44.6194C68.1491 43.9513 67.7554 43.1412 67.2771 42.0154ZM60.4806 45.0139L60.66 41.805C60.4657 41.7261 60.2863 41.6472 60.087 41.5525L60.4756 45.0139H60.4806ZM71.5772 39.7586C71.4725 39.585 71.3829 39.3483 71.2483 39.059C70.8896 38.2173 70.2867 36.839 69.4446 36.4077L69.4147 36.4234V36.3919C69.4147 36.3919 69.3997 36.3919 69.3997 36.3761C69.1456 36.2656 67.9697 35.7711 67.4016 35.8185C66.998 35.8501 67.4764 35.6922 68.0345 35.5975C67.4315 35.1714 66.7738 34.6138 65.9317 33.8037C65.7524 34.0878 65.558 34.3613 65.3438 34.6296C65.7623 34.6769 66.0364 34.7085 66.0364 34.7085L65.284 34.6927C64.985 35.0873 64.6661 35.4555 64.3223 35.8027C65.3587 36.0394 67.0728 36.0394 67.4365 36.0236C67.0329 36.0552 64.7907 36.2604 64.6412 36.2604C64.8355 36.2446 68.2338 38.07 68.2338 38.07C68.2338 38.07 66.2506 37.2914 63.7094 36.3866C63.3955 36.6865 63.0467 36.96 62.7029 37.2283C63.0318 37.3703 63.4254 37.5913 63.7094 37.8491C64.1928 38.2594 65.6627 39.9428 65.6627 39.9428L64.701 37.9595C64.701 37.9595 68.1441 38.8959 69.4994 39.1326C70.8547 39.3694 71.0042 39.3851 71.0042 39.3851C71.0042 39.3851 65.578 42.0207 61.9206 40.8318C61.0636 40.5477 60.1916 40.1164 59.3346 39.6113C59.3495 39.8323 59.3645 40.0532 59.3794 40.2636C60.087 40.6424 60.7796 40.9633 61.4224 41.1842C64.0383 42.0733 66.8635 41.2316 68.5477 40.7213C68.8167 40.6424 69.0759 40.5635 69.2851 40.5162L69.33 40.5004C70.2318 40.2794 71.328 39.9901 71.5872 39.7534L71.5772 39.7586ZM40.5148 16.7753C40.5148 16.7753 40.4849 16.7595 40.4699 16.7437C40.455 16.7437 40.455 16.728 40.455 16.728C40.44 16.7437 40.4699 16.7595 40.5148 16.7753ZM46.9325 18.4429C46.4044 18.222 45.9111 18.4429 45.0989 19.6949C44.2867 20.9469 44.4661 23.5825 44.8298 23.8718C45.2035 24.1559 54.0329 24.7924 54.0329 24.7924C54.0329 24.7924 54.4515 24.6503 54.2422 24.3663C54.0329 24.0822 47.4607 18.6691 46.9325 18.4429ZM50.1364 15.1708C48.4971 15.7916 47.1767 17.375 47.4308 17.8853C47.6999 18.3955 54.5262 23.9191 54.5262 23.9191C54.9797 23.998 54.6458 16.5701 54.2871 15.1708C53.9432 13.7557 51.7758 14.5501 50.1364 15.1708ZM61.0536 17.4592C61.4273 16.728 61.3675 15.981 59.9126 15.1708C58.4526 14.3607 55.5676 14.0766 55.3584 14.7763C55.1491 15.4759 55.2089 22.0937 55.179 23.0459C55.1491 23.998 55.5377 23.9191 55.5377 23.9191C55.9563 23.9191 60.6799 18.1904 61.0536 17.4592ZM64.7807 20.9943C64.8555 19.8212 63.5649 17.4697 62.6431 17.4223C61.7113 17.3592 56.5542 23.5667 56.3748 23.9139C56.1954 24.2453 56.5841 24.582 56.5841 24.582C57.202 24.7871 64.706 22.1831 64.7807 20.9943ZM65.8022 27.2648C66.1012 25.997 65.7274 22.9933 65.0498 22.7565C64.3572 22.5198 57.1123 24.8187 56.7336 25.0449C56.3549 25.2711 56.7336 25.4394 56.7336 25.4394C56.7336 25.4394 63.2909 27.7435 63.7692 27.9803C64.2675 28.1854 65.4982 28.5221 65.7972 27.2648H65.8022ZM27.6593 63.1733C28.307 66.5717 30.634 65.4932 30.634 65.4932C30.634 65.4932 30.046 65.4143 29.0395 64.762C28.033 64.0939 27.6543 63.1733 27.6543 63.1733H27.6593ZM16.9364 55.272C14.4699 54.7144 13.1645 53.0836 13.1645 53.0836C13.1645 53.0836 14.2756 55.1773 16.7869 55.877C19.2982 56.5766 22.0039 55.4666 22.0039 55.4666C22.0039 55.4666 19.4029 55.8454 16.9364 55.2773V55.272ZM25.417 64.6673C25.9452 66.7295 25.4021 69.507 25.4021 69.507C27.0564 64.8567 24.8739 62.5999 24.8739 62.5999C24.8739 62.5999 24.8889 62.5999 25.417 64.6621V64.6673ZM15.4914 68.3182C15.4914 68.3182 16.2438 73.747 16.4979 75.9039C16.752 78.0607 16.767 81.6168 16.767 81.6168C16.767 81.6168 17.1556 79.9808 16.9165 76.3142C16.6624 72.6476 15.4864 68.3129 15.4864 68.3129L15.4914 68.3182ZM26.8172 89.1289C26.7873 89.0973 26.7574 89.0816 26.7424 89.0816C26.7125 89.0816 26.7424 89.0973 26.8172 89.1289ZM48.9505 40.7266C47.0272 39.7429 42.757 39.5693 40.3653 40.6003C37.9735 41.6156 36.6232 44.935 36.6232 44.935C36.1698 44.2827 34.8344 43.9197 34.8344 43.9197L35.6616 44.7614C36.4887 45.6031 36.3392 46.5868 36.4737 48.8436C36.6083 51.0793 38.0234 52.0525 38.0234 52.0525L37.3607 50.5586C36.698 49.0646 37.0318 47.2391 37.3607 48.2229C37.6746 49.1908 38.0533 51.0951 39.9467 52.4313C41.8402 53.7675 44.8049 53.8622 44.8049 53.8622C44.8049 53.8622 42.9712 53.515 41.1675 52.0841C39.3637 50.669 39.0648 48.8752 39.0648 48.8752C39.0648 48.8752 40.161 50.9057 41.6957 51.5581C43.2304 52.2261 43.7386 52.9731 45.9808 53.3519C48.2231 53.7307 50.5351 52.1946 50.5351 52.1946L49.8723 52.9258C49.2096 53.657 46.6236 54.2409 46.6236 54.2409C46.6236 54.2409 47.949 54.1462 49.0452 53.9411C50.1564 53.7359 51.1828 53.4466 52.3388 51.1162C53.4948 48.7805 53.3603 44.2248 52.8371 43.2253C52.3388 42.2258 50.8838 41.7313 48.9555 40.7318L48.9505 40.7266ZM33.793 48.9541C33.3545 48.6858 33.1004 48.9856 32.9808 49.175C32.8613 48.9856 32.6071 48.6805 32.1687 48.9541C31.5358 49.3328 28.9349 55.13 28.2572 56.3504C27.5795 57.5709 27.4749 59.4278 27.5347 60.3326L27.6094 61.2375C27.6094 61.2375 27.6842 58.8387 28.2572 57.8391L28.8302 56.8554C28.8302 56.8554 28.1526 59.2069 28.5611 60.9008C28.9648 62.6157 29.463 63.3469 30.0809 63.6784C30.6987 64.0098 30.9977 64.0256 30.9977 64.0256C30.9977 64.0256 29.5228 63.4048 29.4331 62.0423C29.4331 62.0423 29.6125 62.9945 30.8333 63.0892C32.0491 63.1839 32.652 61.2164 32.8463 60.4852C32.9061 60.2327 32.9509 60.0065 32.9808 59.8171C33.0107 59.9907 33.0556 60.2117 33.1154 60.4852C33.2948 61.2164 33.9126 63.1839 35.1284 63.0892C36.3442 62.9945 36.5286 62.0423 36.5286 62.0423C36.4389 63.4101 34.964 64.0256 34.964 64.0256C34.964 64.0256 35.2629 64.0256 35.8808 63.6784C36.4987 63.3469 36.992 62.6157 37.4005 60.9008C37.8091 59.1858 37.1315 56.8554 37.1315 56.8554L37.7045 57.8391C38.2775 58.8229 38.3522 61.2375 38.3522 61.2375L38.427 60.3326C38.5017 59.4278 38.3821 57.5709 37.7045 56.3504C37.0268 55.1457 34.4258 49.3328 33.793 48.9541ZM36.9222 64.7462C35.9157 65.3986 35.3277 65.4775 35.3277 65.4775C35.3277 65.4775 37.6596 66.5559 38.3024 63.1576C38.3024 63.1733 37.9287 64.0939 36.9172 64.7462H36.9222ZM49.0253 55.272C46.5588 55.8454 43.9578 55.4772 43.9578 55.4772C43.9578 55.4772 46.6485 56.5871 49.1748 55.8875C51.6861 55.1878 52.7972 53.0941 52.7972 53.0941C52.7972 53.0941 51.4868 54.7144 49.0253 55.2667V55.272ZM38.6961 37.3651C40.1709 36.2236 41.611 36.2551 41.7206 36.2551C36.6531 35.9237 36.4588 39.9691 36.4588 39.9691C36.4588 39.9691 37.1663 38.5382 38.701 37.3651H38.6961ZM41.0678 62.6052C41.0678 62.6052 38.8854 64.862 40.5397 69.5123C40.5397 69.5123 39.9965 66.7347 40.5247 64.6726L41.0678 62.6105V62.6052ZM49.2047 81.6221C49.2047 81.6221 49.2196 78.066 49.4737 75.9091C49.7279 73.7523 50.4802 68.3234 50.4802 68.3234C50.4802 68.3234 49.2943 72.6581 49.0502 76.3247C48.7961 79.9913 49.1997 81.6274 49.1997 81.6274L49.2047 81.6221ZM45.4178 86.3198C43.3898 87.8295 43.3599 87.6349 42.8018 88.7659C42.2438 89.8917 38.0333 90.8123 37.6148 90.8596C37.2261 90.8912 38.7708 89.3972 39.1495 89.1289C38.8356 89.2551 37.7194 89.6865 36.5784 90.4756C35.6018 91.1595 34.2465 91.3488 33.524 91.3962C33.3595 91.412 32.4427 91.3962 32.353 91.3962C31.6006 91.3331 30.34 91.1437 29.3933 90.4756C28.2522 89.6813 27.1211 89.2551 26.8222 89.1289C27.1959 89.3972 28.7455 90.8912 28.3569 90.8596C27.9383 90.8281 23.7279 89.8917 23.1698 88.7659C22.6117 87.6402 22.5819 87.8295 20.5539 86.3198C18.5259 84.81 17.8482 81.8273 17.8482 81.8273C17.8482 81.8273 17.6091 82.4953 17.8482 83.8736C18.0874 85.2571 19.0491 86.5091 20.0307 87.051C21.0123 87.5928 21.6401 89.1605 22.3776 90.2441C23.115 91.3225 24.1963 91.896 26.2741 92.5167C28.3618 93.1532 32.9659 93.2637 32.9659 93.2637C33.2798 93.311 34.0471 93.2163 34.0471 93.2163C35.522 93.1374 38.2277 92.9638 39.7026 92.5167C41.7903 91.8802 42.8616 91.312 43.5991 90.2441C44.3365 89.1657 44.9693 87.5928 45.9459 87.051C46.9226 86.5091 47.8842 85.2413 48.1284 83.8736C48.3676 82.4901 48.1284 81.8273 48.1284 81.8273C48.1284 81.8273 47.4657 84.81 45.4377 86.3198H45.4178ZM39.2342 89.0816C39.2342 89.0816 39.1893 89.0973 39.1594 89.1289C39.2192 89.0973 39.2491 89.0816 39.2342 89.0816ZM37.5351 25.9023C37.5799 25.9339 37.6098 25.9497 37.6248 25.9497C37.6696 25.9497 37.6248 25.9339 37.5351 25.9023Z" fill="white"/>
</svg>
