<?xml version="1.0" encoding="utf-8"?>
<!-- Generator: Adobe Illustrator 27.8.1, SVG Export Plug-In . SVG Version: 6.00 Build 0)  -->
<svg version="1.1" id="Layer_1" xmlns="http://www.w3.org/2000/svg" xmlns:xlink="http://www.w3.org/1999/xlink" x="0px" y="0px"
	 viewBox="0 0 200 70" style="enable-background:new 0 0 200 70;" xml:space="preserve">
<style type="text/css">
	.st0{fill:#FFFFFF;}
	.st1{fill:none;stroke:#FFFFFF;stroke-width:3.5;stroke-linecap:round;stroke-miterlimit:10;}
</style>
<g>
	<g>
		<path class="st0" d="M30.75,43.61l24.51-25.4c0.51-0.51,0.66-1.27,0.39-1.94c-0.28-0.66-0.92-1.1-1.64-1.1H41.82
			c-0.34,0-0.61-0.27-0.61-0.61V13c0-0.19,0.09-0.38,0.25-0.49L52,4.66c0.71-0.53,1.01-1.51,0.6-2.3c-0.52-1-1.78-1.26-2.65-0.62
			l-11.59,8.62c-0.45,0.34-0.72,0.87-0.72,1.43v2.76c0,0.34-0.27,0.61-0.61,0.61H3.27c-0.72,0-1.37,0.43-1.64,1.1
			c-0.28,0.67-0.12,1.43,0.39,1.94l24.51,25.4c0.21,0.21,0.33,0.5,0.33,0.8v15.66c0,0.62-0.5,1.12-1.12,1.12H13.65
			c-0.89,0-1.71,0.61-1.85,1.48c-0.18,1.11,0.68,2.08,1.76,2.08h30.07c0.89,0,1.71-0.61,1.85-1.48c0.18-1.12-0.67-2.08-1.76-2.08
			H31.54c-0.62,0-1.12-0.5-1.12-1.12V44.41C30.42,44.11,30.54,43.82,30.75,43.61z"/>
	</g>
	<g>
		<path class="st0" d="M70.7,48.65c-0.03,0.51-0.22,1.16-0.81,2.02c-0.59,0.89-1.62,1.46-2.72,1.72c-1.13,0.24-2.88,0.16-3.96,0.03
			c-1.02-0.11-1.81-0.38-3.58-1.56c-1.78-1.19-3.13-2.64-3.85-3.5c-0.73-0.92-1.13-2.13-1.4-3.07c-0.27-0.97-0.08-3.8-0.05-6.06
			c0.05-2.29,0.11-3.8,0.13-4.61c0.03-0.81,0.38-1.89,1.05-2.8c0.65-0.92,2.07-2.26,4.15-2.43c2.1-0.19,3.42,0.43,4.04,0.78
			c0.59,0.32,2.07,1.29,3.07,2.13c1,0.84,1.81,1.78,2.34,2.4c0.54,0.67,1.02,1.32,1.46,2.64c0.4,1.27,0.35,3.13,0.32,6.39
			C70.86,46.01,70.75,48.19,70.7,48.65z M66.23,38.68c-0.03-2.16-0.03-3.37-0.11-4.45c-0.08-1.08-0.43-2.67-1.83-3.83
			c-1.43-1.16-2.64-1.48-4.12-1.43c-1.46,0.05-2.64,0.38-3.93,1.99c-0.84,1.02-1.29,2.29-1.32,3.15c-0.03,0.78,0,1.62-0.05,4.2
			c-0.05,2.61-0.08,4.47-0.03,5.25c0.05,0.73,0.35,1.94,1.56,3.02c1.19,1.11,2.21,1.78,4.12,1.62c1.86-0.11,2.64-0.38,3.69-1.37
			c1.05-1.05,1.81-2.37,1.91-3.58C66.2,42.05,66.23,40.86,66.23,38.68z M60.3,32.53c0.75,0,1.13,0.08,1.7,0.51
			c0.51,0.43,0.59,0.89,0.62,1.64c0.03,0.7,0.05,6.68,0.08,7.3c0,0.59,0,2.64-2.05,2.69c-2.05,0.03-2.07-1.48-2.18-2.05
			c-0.11-0.57-0.13-2.61-0.13-4.45c-0.03-1.83-0.03-2.88,0-3.31c0-0.43,0.05-0.94,0.43-1.56C58.95,32.91,59.52,32.56,60.3,32.53z"/>
		<path class="st0" d="M88.94,51.75c-0.03,0.46-0.13,0.59-0.27,0.65c-0.16,0.03-3.77,0-4.1,0c-0.27-0.03-0.4-0.05-0.67-0.22
			c-0.22-0.16-2.53-1.64-2.8-1.86c-0.24-0.22-0.24-0.13-0.24,0.08c0,0.27,0,1.4,0,1.7c0,0.32-0.16,0.3-0.4,0.32
			c-0.24,0.03-4.37,0-4.53-0.03c-0.16,0-0.24,0-0.43-0.13c-0.16-0.16-3.07-2.83-3.29-3.02c-0.22-0.16-0.24-0.27-0.24-0.57
			c0-0.24-0.03-7.6-0.03-9.38c0.03-1.81,0.08-9.84,0.08-10c0.03-0.22,0.05-0.24,0.3-0.27c0.24-0.03,3.61-0.05,3.93-0.05
			c0.32-0.03,0.46,0.08,0.7,0.22c0.24,0.16,2.8,1.62,3.18,1.91c0.32,0.3,0.24,0.13,0.24-0.05c0-0.22,0.03-1.59,0.03-1.81
			c0-0.27,0.03-0.27,0.24-0.27c0.27,0,3.99,0.03,4.39,0.03c0.38,0.03,0.49,0.08,0.7,0.24c0.16,0.11,0.75,0.51,1.51,1.16
			c0.75,0.67,1.05,1.1,1.29,1.32c0.27,0.24,0.24,0.38,0.27,0.86C88.84,33.05,88.94,51.32,88.94,51.75z M84.47,48.03
			c0-0.19-0.08-18.35-0.08-18.49c-0.03-0.11-0.08-0.16-0.22-0.16c-0.16,0-2.99,0.11-3.1,0.11c-0.08,0-0.13,0-0.13,0.24
			c0,0.27,0,9.59,0,9.92c0,0.35,0.05,0.67-0.27,0.03c-0.3-0.65-1.78-4.31-2.37-5.63c-0.59-1.29-1.97-4.39-2.02-4.5
			c-0.05-0.13-0.05-0.16-0.19-0.16c-0.11,0-3.29,0.08-3.48,0.11c-0.19,0.03-0.13,0.11-0.13,0.19c0.03,0.13,0,7.95-0.03,10.29
			c-0.03,2.34,0.03,7.95,0.03,8.08c0,0.16-0.03,0.22,0.11,0.22s3.05-0.05,3.21-0.11c0.19,0,0.24,0.05,0.22-0.3
			c0-0.35-0.08-10.38-0.08-10.78c0-0.43,0.13-0.13,0.19,0.05c0.11,0.16,4.69,10.78,4.77,10.97c0.11,0.19,0.11,0.24,0.27,0.24
			c0.16,0,2.99-0.11,3.15-0.11C84.44,48.24,84.47,48.22,84.47,48.03z"/>
		<path class="st0" d="M106.54,36.76c-0.03,0.19-0.03,0.22-0.19,0.24c-0.22,0-5.85-0.05-5.98-0.08c-0.19,0-0.19,0-0.11,0.11
			c0.11,0.13,2.29,3.13,2.34,3.21c0.08,0.11,0.08,0.13,0.08,0.24c0,0.13,0.08,3.05,0.08,3.18c0,0.11,0,0.16-0.05,0.22
			c-0.05,0.03-0.11,0.05-0.03,0.16c0.08,0.08,3.56,3.5,3.67,3.64c0.08,0.13,0.11,0.16,0.11,0.3c0.03,0.11,0.03,3.75,0.03,3.99
			s-0.05,0.27-0.24,0.27c-0.22,0-11.45,0.11-11.59,0.11s-0.16-0.03-0.27-0.11c-0.11-0.08-3.66-3.4-3.75-3.48
			c-0.05-0.08-0.22-0.13-0.22-0.38s0.22-18.81,0.19-19.11c-0.03-0.19,0.05-0.24,0.3-0.27c0.22-0.05,11.48,0,11.67,0
			c0.16,0,0.22,0.03,0.35,0.11c0.13,0.08,3.31,2.88,3.48,3.05c0.16,0.16,0.11,0.19,0.11,0.38C106.49,32.7,106.54,36.55,106.54,36.76
			z M101.88,29.68c0-0.08,0.03-0.16-0.13-0.16c-0.13-0.03-10.32-0.08-10.46-0.08c-0.16,0-0.22,0.03-0.22,0.22
			c0,0.22-0.3,18.38-0.24,18.51c0,0.13,0,0.13,0.13,0.13c0.13-0.03,10.67-0.11,10.89-0.11c0.16,0,0.13-0.08,0.11-0.19
			c-0.03-0.13,0-3.13,0-3.26c0-0.13-0.03-0.16-0.16-0.16c-0.16,0.03-6.93,0.03-7.09,0.03c-0.13-0.03-0.16-0.08-0.16-0.22
			c-0.03-0.16,0-3.53,0-3.66c-0.03-0.11,0.05-0.19,0.19-0.22c0.19-0.03,3.56-0.03,3.72-0.03c0.13,0,0.13-0.03,0.13-0.13
			c0-0.11,0.05-3.15,0.05-3.26c0.03-0.13,0.03-0.11-0.05-0.11c-0.08,0-3.77-0.05-3.91-0.05c-0.11,0-0.13-0.05-0.13-0.16
			s-0.03-3.4-0.03-3.58c0-0.05,0.03-0.08,0.16-0.11c0.13,0,6.74-0.05,6.95-0.08c0.24-0.05,0.24-0.11,0.24-0.24
			C101.91,32.61,101.91,29.76,101.88,29.68z"/>
		<path class="st0" d="M132.79,48.57c-0.11,1.19-0.43,1.64-1.19,2.48c-0.73,0.86-1.51,1.08-2.43,1.19c-0.94,0.11-7.6,0.03-7.95,0
			c-0.32-0.03-0.3,0-0.51-0.16c-0.24-0.22-3.26-3.18-3.4-3.29c-0.13-0.13-0.11-0.16-0.13-0.4c0-0.27,0.03-4.88,0.03-7.11
			c0.03-2.26,0.13-11.83,0.16-12.07c0-0.16,0-0.19,0.3-0.22c0.27,0,4.2,0,5.26,0.03c1,0.03,1.62-0.03,2.78,0.54
			c1.19,0.51,2.4,1.62,3.02,2.18c0.65,0.57,1.46,1.37,2.21,2.4c0.75,1.02,1.37,2.18,1.59,2.69c0.24,0.51,0.27,0.78,0.32,1.64
			c0.03,0.84,0.03,3.99,0.03,5.66S132.93,47.38,132.79,48.57z M128.32,34.34c-0.03-1.1-0.7-2.45-1.56-3.31
			c-0.84-0.86-2.07-1.37-2.94-1.46c-0.86-0.08-5.55-0.11-5.74-0.11c-0.19,0-0.27-0.05-0.27,0.05c0,0.08-0.11,6.31-0.11,7.28
			c0,1.02-0.03,11.16-0.05,11.26c0,0.13-0.03,0.13,0.05,0.19c0.11,0.03,3.15,0.05,4.72-0.05c1.56-0.08,2.24-0.05,3.31-0.7
			c1.08-0.67,1.51-1.29,1.91-2.05c0.4-0.73,0.57-1.35,0.62-1.99c0.03-0.65,0.03-1.78,0.05-3.13C128.35,39,128.35,35.44,128.32,34.34
			z M121.15,33.05c0.05-0.03,0.4-0.08,0.81-0.11c0.43,0,0.67,0.03,1,0.05c0.3,0.03,0.92,0.16,1.46,0.67
			c0.51,0.57,0.57,1.13,0.62,1.56c0.05,0.46,0,2.24,0,3.64c0,1.4-0.08,4.1-0.16,4.47c-0.05,0.4-0.27,0.67-0.54,0.97
			c-0.27,0.32-0.54,0.43-0.97,0.54c-0.4,0.11-1.89,0.05-2.07,0c-0.19-0.05-0.32-0.13-0.32-0.22s0.08-11.32,0.08-11.43
			C121.04,33.1,121.1,33.07,121.15,33.05z"/>
		<path class="st0" d="M150.9,50.94c-0.03,0.13,0,0.19-0.13,0.4c-0.13,0.19-0.54,0.67-1.05,0.84c-0.46,0.19-1.62,0.11-1.94,0.11
			c-0.35,0-0.67,0-1.13-0.22c-0.49-0.22-3.4-2.48-3.64-2.72c-0.24-0.22-0.35-0.11-0.35,0.08c0,0.24-0.11,2.45-0.03,2.61
			c0,0.16-0.16,0.22-0.38,0.24c-0.22,0-3.72-0.03-3.83-0.03c-0.13,0-0.19-0.03-0.27-0.11c-0.08-0.08-3.56-3.4-3.66-3.5
			c-0.11-0.11-0.24-0.3-0.22-0.57c0-0.24-0.03-18.57,0-18.78c0-0.3,0.16-0.3,0.59-0.35c0.43-0.03,4.61,0.03,6.2,0.19
			c1.62,0.13,2.96,0.75,4.12,1.59c1.13,0.84,3.13,2.99,3.66,3.69c0.59,0.73,1.24,1.4,1.64,2.7c0.46,1.37,0.46,2.43,0.27,3.29
			c-0.19,0.89-0.97,1.89-1.1,2.02c-0.11,0.13-0.11,0.19-0.03,0.3c0.08,0.11,0.49,0.43,0.92,1.21c0.38,0.78,0.27,1.86,0.3,3.13
			C150.88,48.27,150.9,50.8,150.9,50.94z M147.29,45.76c-0.08-0.05-0.81-0.24-1.1-0.81c-0.3-0.51-0.3-0.7-0.32-1.56
			c-0.03-0.84-0.05-2.02-0.4-2.75c-0.32-0.7-0.84-1.29-0.92-1.43c-0.11-0.13-0.05-0.19,0-0.27c0.08-0.11,0.75-0.67,1.13-2.1
			c0.4-1.43,0.22-2.8-0.27-3.72c-0.51-0.92-1.27-2.21-2.72-2.94c-1.51-0.73-2.86-0.75-3.72-0.78c-0.86-0.05-3.91-0.11-4.07-0.11
			c-0.13,0.05-0.11,0.08-0.13,0.16c-0.03,0.16,0.05,6.14,0.03,9.51c-0.05,3.29,0,8.84,0,9c0,0.13,0,0.27,0.16,0.27
			c0.16,0,2.94,0,3.07,0c0.13-0.03,0.22-0.03,0.19-0.22c0-0.16,0.03-6.9,0.03-7.11c0-0.22,0.08-0.22,0.22-0.24
			c0.11-0.03,2.21-0.19,2.91,0.27c0.67,0.51,1.05,0.94,1.05,2.18c0.03,1.24,0,3.37,0.67,4.12c0.62,0.78,1.13,0.97,1.78,0.94
			c0.67-0.03,1.21-0.03,1.83-0.78c0.59-0.78,0.62-1.19,0.67-1.37C147.43,45.82,147.43,45.82,147.29,45.76z M138.35,32.99
			c0.11-0.03,0.7-0.05,1.4-0.05s1.08,0.11,1.4,0.24c0.3,0.13,1.4,0.73,1.32,2.05c-0.08,1.35-0.81,1.64-1.43,1.86
			c-0.65,0.24-2.18,0.13-2.51,0.11c-0.3,0-0.32-0.22-0.32-0.38c0-0.16-0.08-3.45-0.05-3.64C138.16,33.05,138.24,33.02,138.35,32.99z
			"/>
		<path class="st0" d="M160.5,51.75c0,0.51-0.13,0.46-0.35,0.46c-0.19,0-3.75,0-3.96,0s-0.35,0-0.54-0.19
			c-0.19-0.19-3.21-2.8-3.37-2.88c-0.13-0.13-0.19-0.22-0.22-0.4c0-0.22-0.08-5.61-0.08-9.54c0-3.91,0.03-9.86,0.03-10.13
			c0-0.13-0.03-0.22,0.16-0.24c0.19-0.03,4.1,0.03,4.34,0.03s0.3,0.05,0.46,0.24c0.13,0.13,3.23,2.86,3.42,3.02
			c0.13,0.13,0.16,0.19,0.19,0.35c0,0.19,0,6.44,0,9.19S160.5,51.29,160.5,51.75z M156.03,47.95c0-0.19-0.03-6.49-0.05-9.22
			c-0.03-2.72-0.16-8.76-0.16-8.97c0-0.22-0.03-0.35-0.13-0.35c-0.11,0-2.72-0.03-2.88-0.03c-0.16,0-0.19,0-0.19,0.19
			c0,0.24-0.03,5.69-0.03,8.79c-0.03,3.07,0.03,9.16,0.03,9.4c0.03,0.22,0.03,0.27,0.16,0.3c0.13,0.05,0.81,0.19,1.64,0.19
			c0.84,0,1.37,0.03,1.46,0C155.97,48.22,156.05,48.16,156.03,47.95z"/>
		<path class="st0" d="M178.93,51.75c-0.03,0.46-0.13,0.59-0.27,0.65c-0.16,0.03-3.77,0-4.1,0c-0.27-0.03-0.4-0.05-0.67-0.22
			c-0.22-0.16-2.53-1.64-2.8-1.86c-0.24-0.22-0.24-0.13-0.24,0.08c0,0.27,0,1.4,0,1.7c0,0.32-0.16,0.3-0.4,0.32
			c-0.24,0.03-4.37,0-4.53-0.03c-0.16,0-0.24,0-0.43-0.13c-0.16-0.16-3.07-2.83-3.29-3.02c-0.22-0.16-0.24-0.27-0.24-0.57
			c0-0.24-0.03-7.6-0.03-9.38c0.03-1.81,0.08-9.84,0.08-10c0.03-0.22,0.05-0.24,0.3-0.27c0.24-0.03,3.61-0.05,3.93-0.05
			c0.32-0.03,0.46,0.08,0.7,0.22c0.24,0.16,2.8,1.62,3.18,1.91c0.32,0.3,0.24,0.13,0.24-0.05c0-0.22,0.03-1.59,0.03-1.81
			c0-0.27,0.03-0.27,0.24-0.27c0.27,0,3.99,0.03,4.39,0.03c0.38,0.03,0.49,0.08,0.7,0.24c0.16,0.11,0.75,0.51,1.51,1.16
			c0.75,0.67,1.05,1.1,1.29,1.32c0.27,0.24,0.24,0.38,0.27,0.86C178.82,33.05,178.93,51.32,178.93,51.75z M174.46,48.03
			c0-0.19-0.08-18.35-0.08-18.49c-0.03-0.11-0.08-0.16-0.22-0.16c-0.16,0-2.99,0.11-3.1,0.11c-0.08,0-0.13,0-0.13,0.24
			c0,0.27,0,9.59,0,9.92c0,0.35,0.05,0.67-0.27,0.03c-0.3-0.65-1.78-4.31-2.37-5.63c-0.59-1.29-1.97-4.39-2.02-4.5
			c-0.05-0.13-0.05-0.16-0.19-0.16c-0.11,0-3.29,0.08-3.48,0.11c-0.19,0.03-0.13,0.11-0.13,0.19c0.03,0.13,0,7.95-0.03,10.29
			c-0.03,2.34,0.03,7.95,0.03,8.08c0,0.16-0.03,0.22,0.11,0.22c0.13,0,3.04-0.05,3.21-0.11c0.19,0,0.24,0.05,0.22-0.3
			c0-0.35-0.08-10.38-0.08-10.78c0-0.43,0.13-0.13,0.19,0.05c0.11,0.16,4.69,10.78,4.77,10.97c0.11,0.19,0.11,0.24,0.27,0.24
			c0.16,0,2.99-0.11,3.15-0.11C174.43,48.24,174.46,48.22,174.46,48.03z"/>
		<path class="st0" d="M199.2,52.1c0,0.16-0.05,0.27-0.27,0.27c-0.27,0.03-3.67,0.05-3.88,0.03c-0.19,0-0.3-0.03-0.46-0.13
			c-0.13-0.11-0.94-0.75-2.02-1.64c-1.13-0.94-2.1-1.62-2.21-1.72c-0.16-0.11-0.19-0.11-0.16,0c0,0.11,0,2.75,0,3.07
			c0.03,0.32-0.16,0.4-0.32,0.43c-0.16,0.03-4.72,0.11-4.85,0.11c-0.11,0-0.16-0.05-0.3-0.13c-0.08-0.11-4.1-3.64-4.2-3.77
			c-0.11-0.19-0.13-0.27-0.13-0.4c0-0.11-0.11-10.27-0.11-11.48c0-1.67,0.05-5.31,0.08-6.44c0.03-0.22,0.11-0.78,0.11-0.89
			c0,0,0.08-0.3,0.19-0.35c0.08-0.05,0.3-0.11,0.46-0.11c0.19,0,3.58,0,3.8,0c0.16-0.03,0.24,0.03,0.3,0.11
			c0.08,0.05,0.43,0.46,0.73,0.86c0.32,0.43,0.59,0.86,0.7,1c0.05,0.13,0.08,0.13,0.19,0c0.13-0.11,1.59-1.59,1.72-1.75
			c0.13-0.13,0.16-0.19,0.35-0.22c0.22,0,6.04-0.03,6.23-0.05c0.16-0.03,0.27,0.03,0.43,0.19c0.19,0.19,3.29,3.05,3.4,3.13
			c0.11,0.13,0.11,0.16,0.11,0.3c0,0.13,0,0.27,0,0.49c0,0.16-0.03,0.22-0.16,0.35c-0.13,0.19-1.89,1.94-2.64,2.75
			c-0.7,0.73-2.86,2.96-2.96,3.05c-0.08,0.08-0.08,0.11,0,0.22c0.08,0.11,1.67,3.4,2.4,4.82c0.75,1.48,3.31,6.44,3.42,6.63
			c0.08,0.16,0.11,0.27,0.11,0.38C199.25,51.32,199.23,51.96,199.2,52.1z M194.56,47.92c-0.08-0.16-1.75-3.69-2.56-5.09
			c-0.7-1.4-3.77-7.52-3.83-7.68c-0.05-0.11-0.08-0.13,0.05-0.27c0.13-0.16,2.13-1.97,2.83-2.72c0.73-0.7,2.53-2.53,2.61-2.61
			c0.05-0.05,0.19-0.13-0.05-0.11c-0.24,0-4.07,0-4.23,0c-0.13,0-0.19,0-0.35,0.13c-0.13,0.16-0.84,0.94-1.54,1.59
			c-0.73,0.65-2.59,2.45-2.75,2.53c-0.11,0.05-0.16,0.11-0.16-0.11s0-0.22,0-0.22s0-0.59,0.03-1.64c0.05-1.1,0.05-2.1,0.05-2.21
			c0.03-0.11,0-0.13-0.13-0.13c-0.08,0-0.94-0.03-1.75-0.03c-0.86,0.03-1.81,0.03-1.86,0.03c-0.08,0.03-0.08,0.03-0.08,0.11
			c0,0.11,0,5.34-0.03,6.9c0,1.54,0.11,11.72,0.11,11.8c0,0.08,0.03,0.13,0.11,0.11c0.08,0,3.29,0,3.37,0
			c0.08,0,0.13,0.03,0.13-0.11c-0.03-0.11-0.03-9.38-0.03-9.49c0-0.11,0-0.16,0.05-0.22c0.05-0.05,0.78-0.89,0.89-0.97
			c0.08-0.05,0.11-0.08,0.19,0.05c0.08,0.19,1.24,2.56,1.89,3.91c0.62,1.29,3.15,6.44,3.21,6.58c0.05,0.11,0.05,0.11,0.16,0.11
			c0.08,0,3.4-0.03,3.56-0.03C194.59,48.14,194.64,48.11,194.56,47.92z"/>
	</g>
	<line class="st1" x1="53.53" y1="62.91" x2="75.75" y2="62.91"/>
	<line class="st1" x1="85.21" y1="62.91" x2="107.43" y2="62.91"/>
	<line class="st1" x1="116.89" y1="62.91" x2="139.11" y2="62.91"/>
	<g>
		<path class="st0" d="M157.21,65.87c0,2.05-1.58,3.92-5.03,3.92c-1.7,0-3.45-0.47-4.63-1.3l1.09-2.15c0.92,0.69,2.2,1.09,3.47,1.09
			c1.41,0,2.27-0.57,2.27-1.56c0-0.92-0.68-1.49-2.27-1.49h-1.28v-1.86l2.5-2.83h-5.17v-2.25h8.5v1.82l-2.74,3.12
			C156.1,62.73,157.21,64.08,157.21,65.87z"/>
		<path class="st0" d="M174.15,64.92c0,2.93-2.03,4.81-4.65,4.81c-1.25,0-2.25-0.4-2.93-1.21v1.08h-2.58V56.71h2.71v4.53
			c0.69-0.76,1.65-1.13,2.81-1.13C172.12,60.11,174.15,61.99,174.15,64.92z M171.41,64.92c0-1.61-1.02-2.58-2.38-2.58
			s-2.38,0.97-2.38,2.58c0,1.61,1.02,2.58,2.38,2.58S171.41,66.53,171.41,64.92z"/>
		<path class="st0" d="M184.06,64.26v5.33h-2.53v-1.16c-0.5,0.85-1.47,1.3-2.85,1.3c-2.19,0-3.49-1.21-3.49-2.83
			c0-1.65,1.16-2.79,4.01-2.79h2.15c0-1.16-0.69-1.84-2.15-1.84c-0.99,0-2.01,0.33-2.69,0.87l-0.97-1.89
			c1.02-0.73,2.53-1.13,4.02-1.13C182.41,60.11,184.06,61.43,184.06,64.26z M181.35,66.64v-0.95h-1.86c-1.27,0-1.67,0.47-1.67,1.09
			c0,0.68,0.57,1.13,1.53,1.13C180.26,67.9,181.04,67.48,181.35,66.64z"/>
		<path class="st0" d="M192.3,60.11v2.5c-0.23-0.02-0.4-0.03-0.61-0.03c-1.49,0-2.48,0.82-2.48,2.6v4.41h-2.71v-9.33h2.58v1.23
			C189.75,60.58,190.86,60.11,192.3,60.11z"/>
		<path class="st0" d="M193.04,68.72l0.9-1.94c0.83,0.54,2.1,0.9,3.24,0.9c1.25,0,1.72-0.33,1.72-0.85c0-1.53-5.64,0.03-5.64-3.69
			c0-1.77,1.6-3.02,4.32-3.02c1.28,0,2.71,0.29,3.59,0.82l-0.9,1.93c-0.92-0.52-1.84-0.69-2.69-0.69c-1.21,0-1.73,0.38-1.73,0.87
			c0,1.6,5.64,0.05,5.64,3.73c0,1.73-1.61,2.97-4.41,2.97C195.51,69.72,193.91,69.29,193.04,68.72z"/>
	</g>
</g>
</svg>
