<?xml version="1.0" encoding="UTF-8"?>
<svg id="Layer_1" data-name="Layer 1" xmlns="http://www.w3.org/2000/svg" width="271.75" height="271.75" viewBox="0 0 271.75 271.75">
  <defs>
    <style>
      .cls-1 {
        font-family: CocoGothic-Bold, 'Coco Gothic';
        font-size: 31px;
        font-weight: 700;
      }

      .cls-1, .cls-2 {
        fill: #fff;
      }

      .cls-3 {
        fill: #231f20;
      }
    </style>
  </defs>
  <circle class="cls-3" cx="135.88" cy="135.88" r="135.88"/>
  <text class="cls-1" transform="translate(60.41 200.53) rotate(-124.31)"><tspan x="0" y="0">C</tspan></text>
  <text class="cls-1" transform="translate(47.34 181.64) rotate(-109.64)"><tspan x="0" y="0">O</tspan></text>
  <text class="cls-1" transform="translate(38.25 154.32) rotate(-94.33)"><tspan x="0" y="0">C</tspan></text>
  <text class="cls-1" transform="translate(36.66 130.05) rotate(-80.1)"><tspan x="0" y="0">K</tspan></text>
  <text class="cls-1" transform="translate(41.52 105.27) rotate(-66.55)"><tspan x="0" y="0">T</tspan></text>
  <text class="cls-1" transform="translate(47.66 90.14) rotate(-56.12)"><tspan x="0" y="0">A</tspan></text>
  <text class="cls-1" transform="translate(62.24 70.02) rotate(-45.93)"><tspan x="0" y="0">I</tspan></text>
  <text class="cls-1" transform="translate(70.9 61.02) rotate(-35.88)"><tspan x="0" y="0">L</tspan></text>
  <text class="cls-1" transform="translate(87.93 49.42) rotate(-26.22)"><tspan x="0" y="0"> </tspan></text>
  <text class="cls-1" transform="translate(98.94 43.56) rotate(-15.04)"><tspan x="0" y="0">U</tspan></text>
  <text class="cls-1" transform="translate(123.85 37.11) rotate(.13)"><tspan x="0" y="0">N</tspan></text>
  <text class="cls-1" transform="translate(150.85 37.59) rotate(15.25)"><tspan x="0" y="0">D</tspan></text>
  <text class="cls-1" transform="translate(175.37 44.78) rotate(29.19)"><tspan x="0" y="0">E</tspan></text>
  <text class="cls-1" transform="translate(194.84 55.95) rotate(42.44)"><tspan x="0" y="0">R</tspan></text>
  <text class="cls-1" transform="translate(211.91 71.82) rotate(56.3)"><tspan x="0" y="0">G</tspan></text>
  <text class="cls-1" transform="translate(225.43 92.81) rotate(70.33)"><tspan x="0" y="0">R</tspan></text>
  <text class="cls-1" transform="translate(233.29 114.71) rotate(85.37)"><tspan x="0" y="0">O</tspan></text>
  <text class="cls-1" transform="translate(235.09 143.45) rotate(101.02)"><tspan x="0" y="0">U</tspan></text>
  <text class="cls-1" transform="translate(229.95 168.63) rotate(116.28)"><tspan x="0" y="0">N</tspan></text>
  <text class="cls-1" transform="translate(217.62 192.63) rotate(131.49)"><tspan x="0" y="0">D</tspan></text>
  <path class="cls-2" d="M98.67,86.5s4.13-.18,5.31-1.06c1.18-.88,1.09-7.24,1.51-6.73v.03-.03c.42-.51.36,5.85,1.51,6.73,1.18.88,5.31,1.06,5.31,1.06,1.15.33-4.74.51-5.46.91-.72.39-1.03,6.49-1.36,6.46h0c-.33.03-.63-6.07-1.36-6.46-.72-.39-6.61-.57-5.46-.91ZM79.21,201.87s-4.13-.18-5.31-1.06-1.09-7.24-1.51-6.73v.03-.03c-.42-.51-.36,5.85-1.51,6.73-1.18.88-5.31,1.06-5.31,1.06-1.15.33,4.74.51,5.46.91s1.03,6.49,1.36,6.46h0c.33.03.63-6.07,1.36-6.46s6.58-.57,5.46-.91ZM185.31,207.96s-4.13-.18-5.31-1.06-1.09-7.24-1.51-6.73v.03-.03c-.42-.51-.36,5.85-1.51,6.73-1.18.88-5.31,1.06-5.31,1.06-1.15.33,4.74.51,5.46.91s1.03,6.49,1.36,6.46h0c.33.03.63-6.07,1.36-6.46.72-.39,6.58-.57,5.46-.91ZM124.47,73.01c.48.24.66,4.19.88,4.16h0c.21.03.39-3.92.88-4.16s4.25-.36,3.53-.6c0,0-2.66-.12-3.41-.69-.75-.57-.69-4.68-1-4.35h0c-.27-.33-.24,3.77-1,4.35-.75.57-3.41.69-3.41.69-.72.21,3.05.33,3.53.6ZM194.36,170.48s-2.66-.12-3.41-.69-.69-4.68-1-4.35h0c-.27-.33-.24,3.77-1,4.35s-3.41.69-3.41.69c-.72.21,3.05.33,3.53.6.48.24.66,4.19.88,4.16h0c.21.03.39-3.92.88-4.16.48-.24,4.25-.39,3.53-.6ZM201.09,152.44c.06.03.12.06.12.06.03-.03-.03-.03-.12-.06ZM210.2,143.48c-.21.54-.72.94-1.54,1.27-.94.39-2.26.75-4.04,1.21l-.09.03c-.42.12-.91.24-1.45.39-.48.12-1,.27-1.54.42,1.63,3.59,2.63,5.13,4.04,6.61,1.78,1.87,1.81,5.13,1.87,7.3,0,.57.03,1.06.06,1.33.09.51-.06,1-.39,1.33-.42.39-1.03.57-1.93.57-1,0-2.38-.21-4.16-.51h-.09c-.42-.06-.94-.15-1.48-.21-3.68-.48-9.84-1.33-14.36-5.28-.18-.15-.33-.3-.51-.45-.03.57-.03,1.09-.06,1.57-.42,7.57-.84,14.73-2.96,18.65-.3.54-.63,1.09-1,1.63.09,1,.18,3.53-1.21,7.18-.24.66-.48,1.33-.72,1.93-1.36,3.65-2.41,6.52-4.38,8.09-1.03.81-2.02,1.06-2.87,1.09-.51,0-1-.06-1.36-.18-.97,3.8-1.72,12.95-1.72,16.54,0,1.54.3,2.69.54,3.68.36,1.42.69,2.75.03,4.5-.69,1.78-1.48,2.47-2.08,3.05-.33.3-.6.54-.78.94-.12.24-.33.69-.57,1.3-1.18,2.72-3.65,8.36-6.97,11.32-.91.81-1.66,1.54-2.38,2.26-2.29,2.26-4.13,4.07-8.09,4.98-3.53.81-6.4,1.06-8.72,1.24-.94.09-1.75.15-2.5.24-1.84.24-3.74.33-4.77.39,0,0-.81.09-1.24.03-.81-.03-3.05-.15-5.25-.42-.75-.09-1.57-.15-2.5-.24-2.32-.18-5.22-.42-8.72-1.24-3.95-.91-5.79-2.72-8.09-4.98-.72-.72-1.48-1.45-2.38-2.26-3.29-2.93-5.76-8.6-6.97-11.32-.27-.6-.45-1.06-.57-1.3-.21-.39-.45-.6-.78-.94-.63-.57-1.39-1.27-2.08-3.05-.66-1.75-.33-3.08.03-4.5.24-1,.54-2.14.54-3.68,0-3.56-.78-12.73-1.72-16.54-.36.12-.84.18-1.36.18-.84-.03-1.87-.27-2.87-1.09-1.96-1.57-3.02-4.44-4.38-8.09-.24-.63-.48-1.27-.72-1.93-1.39-3.65-1.33-6.22-1.21-7.18-.36-.54-.69-1.09-1-1.63-2.11-3.92-2.5-11.07-2.96-18.65-.15-2.81-.15-7.42.15-12.52-.03,0-.09.03-.12.03-1.78.27-3.92-.78-4.86-2.35-.75-1.3-.66-2.78.3-4.07,1.3-1.75,1.66-2.69,2.44-4.77.45-1.18,1-2.63,1.93-4.77,1-2.29,1.48-4.5,1.9-6.46.69-3.11,1.27-5.76,3.5-7.66,1.69-1.42,3.5-1.78,5.01-1.66.88-7.39,1.66-15.69,1.3-17.68-.36-1.96-9.35-7.36-13.19-9.66-3.68-2.2-4.68-2.84-5.1-3.41-.97-1.3-.15-3.44,1.12-5.01,1.39-1.69,2.99-2.32,4.32-1.75,1.66.78,18.41,10.89,20.85,14.51,1.24,1.84,1.27,8.24.97,14.48,1.57-1.15,3.98-2.56,6.4-2.53,2.32.03,3.59.84,4.44,1.39.6.39.78.48,1,.39.6-.18.84-.72,1.24-1.75.15-.42.33-.88.57-1.33.12-.21.21-.42.27-.63.57-1.39,1.3-3.11,6.43-4.59,3.08-.88,4.35-.57,5.13-.39.12.03.27.06.3.06s.18-.12.66-.69c.3-.36.57-.72.84-1.09,1.42-1.9,2.78-3.68,6.64-3.98,2.69-.21,4.1.57,5.13,1.18.69.39,1.09.6,1.66.54.84-.09,1.54.18,2.14.57.03-1.3.24-2.56.42-3.56.09-.57.18-1.06.21-1.33.03-.51.24-.97.63-1.21.48-.33,1.12-.36,1.99-.18,1,.18,2.29.66,4.01,1.3l.09.03c.42.15.88.3,1.42.48,2.75.94,6.91,2.38,10.38,5.19,3.62-2.44,7.79-3.98,12.25-4.44,14.7-1.54,27.88,9.17,29.39,23.87.63,6.01-.81,11.77-3.71,16.6,3.17,2.87,4.71,3.95,6.67,4.77,2.35,1,3.71,3.98,4.62,5.94.24.51.45.97.57,1.21.21.42.27.94.09,1.36ZM143.06,95.86s.03.03.03.03h0c.06.18.15.33.24.48h.06l-.03.03s0,.03.03.03c.3.45,1.72,2.56,2.72,3.17.69.42-.24.12-1.27-.36.88,2.14,1.54,4.95,2.6,9.87.27,1.3.75,2.63,1.33,3.92.15-1.36.42-2.69.81-3.98,0-.03.03-.06.03-.09.3-1.09.69-2.14,1.12-3.17-1.9-1.39-3.53-2.9-3.53-2.9l1.69,1.21c.6.45,1.39.78,2.11,1.03.24-.48.48-.97.72-1.45-.15-.18-.3-.33-.48-.51-1.45-1.57-4.35-3.56-4.98-3.95.72.42,4.62,2.63,4.89,2.78-.33-.21-4.01-6.91-4.01-6.91,0,0,2.26,3.2,5.31,7.3.54-.88,1.12-1.69,1.75-2.5-.36-1.66-.84-4.8-.84-4.8l-.54,4.19s-4.71-5.37-6.67-7.27c-1.99-1.9-2.2-2.11-2.2-2.11,0,0,8.84,1.51,14.3,5.82.21-.18.45-.36.66-.51-3.17-2.47-7-3.77-9.54-4.65-.54-.18-1.03-.36-1.45-.51l-.09-.03c-1.6-.57-3.74-1.36-4.41-1.3-.03.39-.12.88-.21,1.48-.3,1.54-.72,3.98-.15,5.67ZM98.04,110.1c1.27-1.03,3.14-2.41,4.95-3.02,3.11-1.06,5.25,1.06,5.25,1.06,0,0-2.47-1.42-4.92-.12-2.44,1.3-3.83,4.19-4.35,6.22-.3,1.21-.18,2.11-.03,2.66,3.71.15,10.2-.09,13.4-.42,4.29-.45,10.23.03,12.92,2.87,2.75-.06,4.8-.12,5.64-.15h.42c.94.03,3.26.09,6.4.18.57-.57,1.42-1.27,2.53-1.66,2.05-.75,1.78-.06,1.3-1.09-.45-1.03-.88-2.17,1.51-3.47,1.45-.81,2.66-1.12,3.35-1.27-.03-.12-.09-.27-.12-.39-.78-.24-2.05-.48-3.53-.18-2.41.45-5.97,2.99-5.22,3.17.66.15,2.14,1.72,2.72,2.14-.69-.21-3.02-.78-5.37-.97-2.99-.24-6.79,2.41-6.79,2.41,0,0-.57.15,1.51-1.57s4.5-2.26,5.85-2.38,1.27-1.33,4.29-3.41c2.53-1.78,5.16-1.78,5.88-1.72-1.51-7.06-2.2-9.26-3.65-11.53-.18-.27-.33-.57-.45-.91-.09-.21-.48-.88-1.03-1.39h0s-1.03-.84-2.93,0c-1.9.84-3.44,1.99-3.44,1.99,0,0,1.03-2.11,2.75-3.11-.12-.06-.24-.15-.39-.21-.94-.54-1.99-1.15-4.16-.97-3.11.24-4.1,1.54-5.46,3.35-.27.36-.57.75-.91,1.15-.36.45-.69.78-.97.97.3.12.57.27.84.42.6-.84,2.44-3.41,3.59-4.13,1.39-.84,3.59-.45,3.59-.45,0,0-1.96.24-3.44,1.72s-1.45,2.6-1.33,3.8c.06.51.15.97.27,1.33.15.12.27.21.42.3,1.48.94,2.23,1.51,5.22,2.35s2.6-.12,5.16-1.06,4.1.78,4.1.78c0,0-1.75-.75-3.77.21s-2.32,2.56-2.32,2.56c0,0-1.24-.06-3.77-1.27-2.56-1.21-3.44-1.57-5.04-1.15-1.6.42-5.01.63-5.01.63,0,0,3.44-1.45,3.92-1.87s-.57-1.39-2.05-2.72c-.81-.72-2.14-1.06-3.17-1.21-.27-.03-.84-.06-1.6.03-.45.06-.78.09-1,.12-.15.03-.3.09-.48.12-4.38,1.27-4.86,2.44-5.34,3.62-.12.27-.21.51-.36.78-.21.36-.36.78-.51,1.18-.39.97-.81,2.05-1.9,2.56.27.27.51.54.75.81.63-.39,1.54-1.18,2.08-2.38.84-1.93,1.57-3.5,2.72-4.22,1.18-.72,3.17-.78,3.17-.78,0,0-2.72.57-3.77,2.78s-1.48,5.16-1.57,6.52.6,1.78.6,1.78c.66.27,1.45.42,2.41,1.24,1.69,1.39,3.56,3.98,3.56,3.98,0,0-2.63-2.53-6.13-3.59-3.5-1.03-7.3.88-7.3.88l1.72-1.21c1.72-1.21,3.32-1.39,3.23-1.57-.06-.18-.54-1-1.96-2.6-.75-.84-1.66-1.57-2.35-2.08-.75-.48-1.69-1.06-3.53-1.09-2.63-.06-5.43,2.17-6.49,3.08-.06.51-.09,1.03-.12,1.54ZM91.73,96.67c.48,2.63-.54,12.4-1.3,18.8.15.06.27.15.39.21.12.03.45.09.84.15l1.84-16.54-1.18,16.63h.03c.84.09,1.78.21,2.69.39.69-7.45,1.09-15.12.84-19.49-1.18,0-3.89,0-4.04-.09s2.66-.66,3.95-.91c-.03-.27-.06-.54-.09-.78l-3.05.45,2.9-1.33c-.09-.39-.18-.69-.33-.88-.06-.09-.15-.21-.24-.3l-2.99,1.9,2.35-2.53c-.27-.27-.6-.54-.94-.84l-1.78,2.26,1.12-2.81c-5.04-4.01-15.6-10.53-17.32-11.32-.12,0-.57.18-1.15.81-.27.3-.51.63-.69.94l15.69,10.26-16.08-9.45c-.06.18-.09.33-.09.42.54.45,2.53,1.66,4.32,2.72,7.76,4.65,13.79,8.48,14.3,11.32ZM79,140.7c.39-2.08.84-4.41,1.9-6.25.45-.78.88-1.6,1.27-2.35,1.12-2.2,1.99-3.92,3.53-4.38.75-.21,1.57-.06,2.41.45,1.15.69,1.96,1.42,2.6,1.99,1.06.94,1.54,1.33,2.53,1.24.54-.06,1.51-.97,2.41-1.87,1.87-1.81,4.38-4.22,7.76-4.22.24,0,.48,0,.72.03,5.58.54,5.58,3.41,5.58,8.15v1.51c.03,2.17.21,3.92.39,5.34.27,2.5.48,4.16-.54,5.46-.39.51-.39.69-.39.69.06.03.39.3,2.14.54.91.12,1.39-.3,1.63-.66.39-.63.39-1.57-.03-2.17-1.39-2.02-.78-6.46-.09-8.24.24-.63-.09-2.32-.39-3.8-.36-1.84-.75-3.74-.45-5.13.3-1.42,1-2.44,2.02-2.99,1.27-.69,3.02-.6,5.19.27,1.9.75,4.07-.21,4.95-1.54.39-.57.69-1.45-.06-2.26-2.11-2.23-7.3-2.81-11.53-2.35-3.68.39-14.67.78-16.72.06-.97-.33-2.44-.51-3.65-.66-1.15-.12-1.72-.21-2.05-.39l-.06-.03c-.15-.09-3.11-1.81-5.97.6-1.81,1.54-2.32,3.83-2.96,6.76-.45,2.02-.97,4.35-2.02,6.76-.91,2.08-1.45,3.53-1.9,4.68-.78,2.08-1.24,3.23-2.66,5.16-.57.78-.63,1.54-.21,2.23.6,1,2.05,1.72,3.17,1.54.69-.09,1.12-2.35,1.48-4.16ZM86.9,129.41c-.45-.18-.69-.15-.78-.12-.21.06-.39.21-.6.39,1.18,3.08,2.14,5.79,2.14,4.41,0-.66-.36-2.69-.75-4.68ZM82.74,134.54c-.12.24-.27.48-.39.75-.91,1.57-1.33,3.77-1.72,5.73-.18.88-.33,1.69-.51,2.44-.42,5.31-.51,10.41-.42,13.85.33-7.21,1.72-16.72,3.05-22.78ZM91.58,195.5c-.09-.27-.18-.54-.27-.81-.94-.54-2.23-1.57-3.05-3.47-.94-2.23-2.08-5.52-2.72-7.42-.6-.54-1.21-1.12-1.78-1.75.15,1.03.45,2.29,1,3.8.24.66.48,1.33.72,1.96,1.24,3.35,2.2,6.01,3.71,7.18.97.75,1.84.66,2.38.51ZM171.09,186.6c-.51.03-1.15.06-1.81.06-.15.36-.33.84-.54,1.36-.48,1.12-1.03.81-1.39,1.45s.21,2.38.21,2.38c0,0-.51-.72-.91-2.14-.24-.94-.18-2.17-.09-2.96-.51.03-1.03.06-1.54.09-.18,1.33-.51,3.65-.88,5.61h0s-.63,7.18-2.11,11.1-2.63,4.98-2.63,4.98c0,0,1.15-3.62,1.84-6.88-.81,1.99-1.72,3.86-2.47,4.8-1.15,1.42-1.93,2.11-2.38,2.41.18.84.24,1.6.24,2.11.54.09,1.51-.33,1.51-.33,0,0-1.06,1.06-1.33,1.51s-.84.78-.75,1.54c.06.75-.15,2.44-.15,2.44,0,0-.45-1.63-.84-.72-.39.88-.15.78-.33,1.21s-.81.88-1.09,1.48c-.3.57-.27,1.9-.27,1.9,0,0-.39-1.63-.84-1.27s-.66.51-1.09.84c-.42.3-.42.09-.81,1.15-.39,1.06-1.09,2.11-1.09,2.11,0,0,.33-1.45.18-1.87s-.21-.51-.69.03c-.51.51-1.45.36-1.42.81,0,.45-.54,1.18-.54,1.18v-.51c0-.51-.33-1.36-.81-.63s-1.12,1.24-1.93,1.09c-.81-.18-1.39-.39-1.51.21s-1.3,1.93-1.3,1.93c0,0,.24-.84.42-1.45s-.15-.91-.57-.75c-.39.15-1.12.33-1.84.39s-1.99-.45-2.05-.03c-.06.39.15,2.6.15,2.6,0,0-.66-1.81-.91-2.23-.24-.45-.36-.45-1.18-.21-.78.24-2.66-.6-2.93-.39-.27.18-.6.21-1.06.54-.12.09-.24.3-.33.51-.06.21-.12.42-.18.6-.03-.21-.09-.42-.18-.6-.09-.21-.18-.42-.33-.51-.45-.33-.78-.36-1.06-.54s-2.11.63-2.93.39c-.78-.24-.94-.24-1.18.21s-.91,2.23-.91,2.23c0,0,.21-2.2.15-2.6s-1.3.12-2.05.03c-.72-.06-1.45-.24-1.84-.39s-.72.12-.57.75.42,1.45.42,1.45c0,0-1.18-1.33-1.3-1.93-.12-.6-.69-.39-1.51-.21s-1.45-.36-1.93-1.09c-.48-.72-.81.15-.81.63v.51s-.54-.72-.54-1.18-.94-.27-1.42-.81c-.51-.51-.54-.45-.69-.03s.18,1.87.18,1.87c0,0-.69-1.06-1.09-2.11s-.39-.84-.81-1.15-.6-.48-1.09-.84c-.45-.36-.84,1.27-.84,1.27,0,0,.03-1.33-.27-1.9-.3-.57-.94-1.06-1.09-1.48-.18-.42.06-.33-.33-1.21s-.84.72-.84.72c0,0-.21-1.69-.15-2.44s-.48-1.09-.75-1.54-1.33-1.51-1.33-1.51c0,0,.94.42,1.51.33,0-.51.06-1.27.24-2.11-.45-.3-1.21-1-2.38-2.41-.75-.97-1.66-2.81-2.47-4.8.69,3.26,1.84,6.88,1.84,6.88,0,0-1.15-1.06-2.63-4.98-1.48-3.92-2.11-11.1-2.11-11.1h0c-.36-1.93-.69-4.29-.88-5.61-.51-.03-1.03-.06-1.54-.09.09.75.15,2.02-.09,2.96-.36,1.42-.91,2.14-.91,2.14,0,0,.57-1.75.21-2.38-.36-.63-.91-.33-1.39-1.45-.21-.51-.39-.97-.54-1.36-.66,0-1.27-.03-1.81-.06.6,2.26,1.9,6.97,2.75,9.32,1.21,3.35,2.11,14.03,2.11,18.08,0,1.78-.33,3.11-.6,4.16-.33,1.3-.54,2.14-.09,3.29.51,1.33,1.03,1.78,1.54,2.23.42.36.88.78,1.27,1.51.15.3.36.75.66,1.42,1.12,2.6,3.5,7.97,6.46,10.59.94.84,1.75,1.63,2.44,2.32,2.23,2.2,3.71,3.65,7.06,4.41,3.38.78,6.16,1,8.42,1.18.94.09,1.81.15,2.6.24,1.93.24,3.92.36,4.86.39l1.51-.03c1.03-.06,2.78-.15,4.5-.36.78-.09,1.66-.18,2.6-.24,2.26-.18,5.04-.42,8.42-1.18,3.38-.78,4.83-2.23,7.06-4.41.72-.69,1.51-1.48,2.44-2.32,2.96-2.63,5.31-8,6.46-10.59.3-.66.48-1.12.66-1.42.39-.72.84-1.15,1.27-1.51.54-.48,1.03-.91,1.54-2.23.45-1.18.24-2.02-.09-3.29-.27-1.06-.6-2.35-.6-4.16,0-4.04.91-14.73,2.11-18.08.84-2.35,2.14-7.06,2.75-9.32ZM106.82,210.47s0,.57.06,1.24c.09.69.21,1.09.36.66h0c.03-.12.03-.24.06-.36.15-1,.51-1.69.84-2.14-.06-.06-.15-.15-.21-.21-.3-.39-.51-.88-.63-1.39-.03.09-.06.15-.09.24-.27.69-.36,1.42-.39,1.96h0ZM107.45,204.76c-1.03-.63-1.99-2.02-1.99-4.38,0-.36.03-.72.06-1.12-1.36-.15-2.69-.69-3.77-1.27,1.03,2.87,2.35,6.04,3.32,7.21.72.91,1.24,1.42,1.57,1.72.24-.33.51-.51.75-.63.09-.57.09-1.12.06-1.54ZM105.73,196.19c-.66-.03-1.57-.21-2.56-.81s-2.05-1.39-2.84-2.02c.03.15.06.33.09.48.09.33.18.72.3,1.15.66.51,2.81,2.05,4.92,2.26.06-.33.09-.69.09-1.06ZM108.54,206.91c-.18.72-.03,1.51.36,1.99.09.12.21.21.33.27.12-.94.33-1.84.42-2.26.03-.18.06-.33.09-.48,0-.12-.03-.75-.51-1.24-.3-.3-.45-.21-.51-.09,0,.54-.03,1.18-.18,1.81ZM108.36,213.46c0,.06,0,1.06.18,1.42.18.39.15.54.27.72.12.21.24.15.36-.18.03-.06.03-.09.06-.15.03-.33.06-.66.12-1,.15-1,.48-1.63.81-2.05-.39-.3-.72-.66-.84-1-.06-.18-.09-.42-.12-.66-.24.33-.48.88-.63,1.66-.12.48-.15.91-.21,1.24ZM112.13,207.24s0-.03,0,0c0,0-.03-1.09-.39-1.33-.36-.21-.75.88-.78.97h0c-.03.12-.03.24-.06.36-.39,1.57-.6,3.17-.42,3.56.09.18.6.69,1.3.94.18.06.48.15.75.12-.12-.51-.3-1.21-.45-2.32-.12-.75-.06-1.57.06-2.29ZM112.4,213.09c-.33,0-.69-.09-1.09-.21-.03,0-.06-.03-.09-.03-.21.24-.54.75-.66,1.66-.12.84-.15,1.72-.12,2.38,0,.03.12,1.54.42,1.81s.72-.18.94-.81h0c.06-1.12.15-2.56.21-3.35.03-.72.21-1.15.39-1.45h0ZM125.74,221.03s-.06,1.12,1.09,1.36c1.15.21,1.93-.27,2.53-1.33.39-.72.3-1.96.18-2.75-.15-.39-.33-.63-.45-.75-.33.06-.69.09-1.09.09h-.03c-.66-.03-1.36-.12-2.02-.33-.12.15-.27.57-.24,1.45s.03,1.66.03,2.26h0ZM129.66,215.93c.48-1,.33-1.99.15-3.11-.09-.48-.15-1-.18-1.51v-.21h0s-.42-2.44-.72-3.95-2.56-2.11-2.99-1.15-.94,3.29-.94,3.29v.03c-.06.51-.21,1.09-.36,1.69-.33,1.36-.78,3.05-.33,3.98.33.69,2.14,1.42,3.74,1.45.84,0,1.48-.21,1.63-.51ZM123.08,215.42c-.06-.12-.09-.24-.12-.33-.21.3-.45.51-.75.66s-.72.18-1.15.18h.12s-.33.24-.27,1.57c.03,1,.06,1.96.09,2.75,0,0,.21,2.08.91,2.14.69.06,1.72-.78,2.11-1.78.24-.6.36-1.66.42-2.47h0c.03-.54.03-.97,0-1.09-.06-.15-.12-.3-.15-.42-.54-.36-1-.75-1.21-1.21ZM122.36,210.8c-.03-.6-.15-.97-.27-1.39-.03-.06-.03-.15-.06-.21h0c-.09-.39-.21-.84-.27-1.45-.15-.39-.36-.72-.81-.88-1.03-.33-1.39.3-1.63,1.27v.03c-.12.54-.27,1.12-.48,1.66-1.09,2.87-.97,3.74-.88,3.98.21.36,1.87.94,2.99.94h.15c.21,0,.42-.03.57-.09.42-.24.88-1.33.69-3.86ZM117.35,214.84c-.09.21-.21.6-.24,1.33-.03.91-.09,1.78-.18,2.5h0s.09,2.56.69,3.14c.63.6,1.75-.63,1.93-1.33.18-.69.18-1.03.18-1.03-.03-.6-.03-1.27-.06-1.93-.03-.72.03-1.27.18-1.72-.54-.09-1.06-.24-1.51-.42-.42-.18-.75-.36-1-.54ZM117.23,210.65c-.09-.42-.18-1.03-.24-1.69h0v-.03c0-.06,0-.12-.03-.18-.06-.36-.18-1.06-.45-1.45-.39-.54-1.63-1.24-1.99-1.42-.36-.18-.84.48-1.18,1.66-.09.6-.12,1.27-.06,1.87.15,1.15.33,1.84.48,2.35.09.39.18.75.24,1.15.18.15.97.42,1.81.39.48,0,.75-.09.91-.18,0-.63.21-1.45.51-2.47ZM113.22,214.63c-.06.75-.15,2.17-.21,3.29,0,0,.06,1.42.33,1.78.24.39.78,1.24,1.3.78s.81-1.06,1.03-1.81c.06-.72.15-1.63.18-2.6.03-.66.12-1.18.27-1.6-.18,0-.36.03-.54.03-.48,0-.94-.09-1.3-.18-.39-.12-.69-.24-.91-.39-.06.18-.12.39-.15.69ZM148.88,207.54c-.33-1.18-.81-1.81-1.18-1.66-.36.18-1.6.91-1.99,1.42-.3.39-.42,1.09-.45,1.45,0,.06,0,.12-.03.18v.03h0c-.09.66-.15,1.27-.24,1.69.33,1.03.51,1.84.54,2.47.15.09.42.18.91.18.88.03,1.63-.21,1.81-.39.03-.39.12-.72.24-1.15.15-.54.3-1.21.48-2.35.06-.6,0-1.27-.09-1.87ZM148.85,213.94c-.21.15-.51.27-.91.39-.36.09-.81.15-1.3.18-.18,0-.36,0-.54-.03.15.42.24.94.27,1.6.03.97.12,1.87.18,2.6.21.72.51,1.36,1.03,1.81.51.45,1.06-.42,1.3-.78.24-.39.33-1.78.33-1.78-.06-1.09-.12-2.5-.21-3.29-.03-.3-.09-.51-.15-.69ZM144.9,214.84c-.24.21-.57.39-1,.54-.45.18-.97.33-1.51.42.15.45.21,1,.18,1.72-.03.66-.06,1.33-.06,1.93,0,0,0,.36.18,1.03.18.69,1.3,1.9,1.93,1.33.63-.6.69-3.14.69-3.14h0c-.06-.72-.15-1.57-.18-2.5-.06-.72-.15-1.12-.24-1.33ZM143.36,209.8c-.21-.54-.36-1.12-.48-1.66v-.03c-.24-.97-.6-1.6-1.63-1.27-.42.15-.66.48-.81.88-.06.63-.15,1.09-.27,1.45h0c-.03.06-.03.15-.06.21-.12.42-.21.81-.27,1.39-.18,2.5.27,3.62.69,3.8.15.06.33.09.57.09h.15c1.12,0,2.78-.57,2.99-.94.09-.18.21-1.03-.88-3.92ZM139.26,215.05c-.03.12-.06.24-.12.33-.21.45-.63.88-1.21,1.21-.06.12-.12.27-.15.42-.03.12-.03.57,0,1.09h0c.06.81.18,1.87.42,2.47.39,1,1.42,1.84,2.11,1.78.69-.06.91-2.14.91-2.14h0c.03-.78.06-1.75.09-2.75.06-1.36-.27-1.57-.27-1.57,0,0,.03.03.12,0h0c-.45,0-.84-.06-1.15-.18-.3-.12-.54-.36-.75-.66ZM137.63,210.95c-.15-.6-.3-1.18-.36-1.69v-.03s-.48-2.32-.94-3.29c-.42-.97-2.69-.36-2.99,1.15s-.72,3.95-.72,3.95h0v.21c-.03.51-.12,1.03-.18,1.51-.18,1.15-.33,2.11.15,3.11.15.33.78.51,1.69.48,1.6-.03,3.41-.75,3.74-1.45.39-.91-.03-2.6-.39-3.95ZM136.51,218.74c.03-.88-.12-1.27-.24-1.45-.66.18-1.36.3-2.02.33h-.03c-.39,0-.75-.03-1.09-.09-.12.12-.3.36-.45.75-.12.75-.21,2.02.18,2.75.6,1.06,1.39,1.57,2.53,1.33,1.15-.21,1.09-1.36,1.09-1.36h0c0-.57,0-1.36.03-2.26ZM150.18,209.56c-.15,1.09-.3,1.78-.45,2.32.3,0,.57-.06.75-.12.69-.24,1.21-.75,1.3-.94.15-.39-.03-1.99-.42-3.56-.03-.12-.06-.24-.06-.36h0c-.03-.09-.42-1.18-.78-.97s-.39,1.33-.39,1.33h0c.09.69.15,1.51.06,2.29ZM151.66,214.48c-.15-.91-.45-1.39-.66-1.66-.03,0-.06.03-.09.03-.39.15-.75.21-1.09.21h0c.18.3.36.75.42,1.42.06.78.15,2.23.21,3.35h0c.21.63.63,1.09.94.81.3-.27.42-1.78.42-1.81,0-.66,0-1.54-.15-2.35ZM153.53,205.13c-.09-.12-.24-.21-.51.09-.48.48-.51,1.09-.51,1.24.03.15.03.3.09.48.09.39.33,1.33.42,2.26.12-.06.24-.15.33-.27.39-.48.54-1.27.36-1.99-.18-.66-.21-1.3-.18-1.81ZM152.08,212.22c.3.42.66,1.06.81,2.05.06.33.09.66.12,1,0,.06.03.09.06.15.09.33.24.39.36.18.12-.21.09-.36.27-.72s.18-1.36.18-1.42c-.03-.33-.09-.72-.18-1.24-.12-.78-.39-1.33-.63-1.66-.03.24-.06.48-.12.66-.15.33-.45.66-.88,1ZM159.05,195.41c-1,.6-1.9.75-2.56.81,0,.36.03.72.06,1.06,2.11-.24,4.25-1.75,4.92-2.26.12-.42.24-.81.3-1.15.03-.15.06-.3.09-.48-.75.6-1.81,1.42-2.81,2.02ZM154.8,204.76c-.03.42-.03.97.06,1.57.24.12.48.3.75.63.33-.3.84-.81,1.57-1.72.94-1.18,2.29-4.35,3.32-7.21-1.09.57-2.38,1.12-3.77,1.27.03.39.06.75.06,1.12,0,2.32-1,3.71-1.99,4.35ZM154.32,209.62c-.06.09-.15.15-.21.21.3.45.66,1.18.84,2.14.03.12.03.24.06.36h0c.15.42.27.03.36-.66.09-.69.06-1.24.06-1.24h0c-.03-.57-.15-1.27-.36-1.96-.03-.09-.06-.18-.09-.24-.15.51-.36,1-.66,1.39ZM178.46,182.04c-.57.63-1.18,1.24-1.78,1.75-.63,1.9-1.81,5.19-2.72,7.42-.78,1.9-2.11,2.96-3.05,3.47-.09.27-.18.54-.27.81.51.15,1.39.21,2.35-.54,1.51-1.21,2.47-3.83,3.71-7.18.24-.63.48-1.3.72-1.96.6-1.48.88-2.75,1.03-3.77ZM181.05,170.48s.63-3.53-2.32-5.76c-2.99-2.23-5.19-12.1-6.94-16.39-1.75-4.32-4.53-7.69-4.53-7.69,0,0,2.87,2.14,3.71,3.17.75.94.24-3.8,1.78-9.51-.09-.24-.18-.39-.3-.54-.66-.97-.78-1.75.18-4.13.78-1.93.84-3.68.15-4.71-.27-.39-.6-.6-.97-.6-.42,0-1.06.12-1.72.24-1.75.33-4.13.78-6.22-.18-.75-.33-1.33-.66-1.81-.91-1.18-.63-1.6-.88-3.08-.72-.97.12-1.78-.15-2.17-.72-.03-.06-.06-.09-.06-.15-6.94-.18-14.54-.36-19.71-.48l-10.68-.03h-.12c.06.78-.15,1.57-.66,2.32-1.3,1.9-4.22,3.23-6.94,2.17-1.69-.66-2.99-.78-3.8-.33-.57.3-.97.94-1.18,1.87-.24,1.06.15,2.87.45,4.47.36,1.75.66,3.29.42,4.38,9.32-.15,9.69,7.09,9.69,7.09,0,0-1.39-2.69-4.5-4.95-2.08-1.51-4.13-1.93-5.22-2.05-.03.09-.03.18-.09.27-.66,1.66-.97,5.43-.09,6.7.15.21.27.45.36.72.6.15,1.15.33,1.66.54,4.8,1.93,7.51,8.24,7.51,8.24.91-1.24,3.59-1.93,3.59-1.93l-1.66,1.6c-1.66,1.6-1.36,3.47-1.63,7.76-.33,4.22-3.17,6.07-3.17,6.07l1.33-2.84c1.36-2.84.66-6.31,0-4.44-.63,1.84-1.39,5.46-5.19,8-3.8,2.53-9.75,2.72-9.75,2.72,0,0,3.68-.66,7.3-3.38,3.62-2.69,4.22-6.1,4.22-6.1,0,0-2.2,3.86-5.28,5.1-3.08,1.27-4.1,2.69-8.6,3.41s-9.14-2.2-9.14-2.2l1.33,1.39c1.33,1.39,6.52,2.5,6.52,2.5,0,0-2.66-.18-4.86-.57-2.23-.39-4.29-.94-6.61-5.37-2.32-4.44-2.05-13.1-1-15,1.06-1.9,3.95-2.84,7.82-4.74,2.2-1.06,5.91-1.63,9.57-1.57.03-.72-.09-1.6-.21-2.72-.15-1.45-.36-3.29-.39-5.52v-1.51c0-4.68,0-6.07-4.07-6.49-2.96-.3-5.28,1.93-7.15,3.74-1.3,1.24-2.29,2.23-3.41,2.32-1.75.15-2.69-.66-3.8-1.66-.42-.36-.88-.78-1.45-1.18.24.66.51,1.42.78,2.23,2.26,6.49,1.51,12.4,2.35,11.38s3.71-3.17,3.71-3.17c0,0-2.81,3.38-4.53,7.69-1.75,4.29-3.95,14.18-6.94,16.39-2.96,2.23-2.32,5.76-2.32,5.76-.15,4.01,2.02,7.51,2.29,7.97,2.11,3.05,5.1,5.58,6.82,6.04.57.15,1.81.18,3.11.18.6,0,1.27.03,1.96.06-.84-.21-1.84-.48-3.02-.75-3.59-.91-6.04-4.71-6.04-4.71,0,0,1,1.18,4.47,2.66,3.47,1.45,4.59.45,3.47.24s-5.07-1.06-7.36-3.68c-2.29-2.66-2.72-5.91-2.72-5.91,0,0,.66,2.11,2.9,4.1,2.23,1.99,6.07,3.29,10.38,3.23,4.35-.06,8.93,2.35,8.93,2.35l-1.57-1.33c-1.57-1.33-4.32-2.66-4.32-2.66,0,0,1.42.3,4.83,1.75,3.38,1.45,8.24,6.04,8.6,11.23s-.81,11.47-.81,11.47c0,0-2.08-.75-1.93-1.84.12-1.09.51-5.73-1.12-9.87s-6.4-6.04-6.4-6.04c0,0,3.86,1.99,5.16,7.15,1.3,5.19-.09,8.69-.09,8.69,0,0,.42-3.23-.75-8.33-.36-1.6-1.21-2.87-2.2-3.89,2.41,3.62,2.08,7.27,1.81,9.96-.06.69-.12,1.36-.12,1.9,0,1.03.24,1.72.51,2.14.03.03.54.48,1.12.45.57-.06,1.06.21,1.39.57s2.14.81,2.72.3,1.06-1.72,1.06-1.72c0,0,.18,1.3.12,1.84-.03.51.84.66,1.96.97s.81-.21,1-1c.18-.75.21-.88.21-.88,0,0,.97,1.6,1.66,2.08.69.51,1.48.18,1.87.54.39.39,1.51-1.36,1.54-1.57.06-.21.39-1,.39-1,0,0-.15,1.99-.24,2.53-.09.54,1.48-1.36,2.63-1.39,1.15-.03,2.84-.18,3.68.63.84.81.84-.24.88-1.27.03-1,0-1.93,0-1.93,0,0,.88,1.81,1.12,2.96.21-1.15,1.12-2.96,1.12-2.96v1.93c.03,1,.03,2.05.88,1.27.84-.81,2.53-.63,3.68-.63,1.15.03,2.72,1.93,2.63,1.39-.09-.54-.24-2.53-.24-2.53,0,0,.33.78.39,1,.06.21,1.15,1.96,1.54,1.57.39-.39,1.18-.03,1.87-.54.69-.51,1.66-2.08,1.66-2.08,0,0,0,.09.21.88.18.75-.12,1.27,1,1,1.12-.3,1.99-.45,1.96-.97s.12-1.84.12-1.84c0,0,.51,1.24,1.06,1.72.57.51,2.35.06,2.72-.3.33-.36.84-.63,1.39-.57.54.06,1.09-.42,1.12-.45.27-.42.51-1.12.51-2.14,0-.54-.06-1.21-.12-1.9-.24-2.69-.6-6.34,1.81-9.96-1,1.03-1.84,2.29-2.2,3.89-1.15,5.1-.75,8.33-.75,8.33,0,0-1.39-3.5-.09-8.69,1.3-5.19,5.16-7.15,5.16-7.15,0,0-4.74,1.9-6.4,6.04-1.63,4.13-1.27,8.78-1.12,9.87.12,1.09-1.93,1.84-1.93,1.84,0,0-1.18-6.25-.81-11.47.36-5.19,5.22-9.81,8.6-11.23,3.38-1.45,4.83-1.75,4.83-1.75,0,0-2.75,1.33-4.32,2.66l-1.57,1.33s4.62-2.44,8.93-2.35c4.32.06,8.15-1.21,10.38-3.23,2.23-1.99,2.9-4.1,2.9-4.1,0,0-.45,3.29-2.72,5.91-2.29,2.66-6.28,3.47-7.36,3.68-1.12.21,0,1.24,3.47-.24,3.47-1.45,4.47-2.66,4.47-2.66,0,0-2.41,3.8-6.04,4.71-1.18.3-2.17.54-3.02.75.69-.03,1.36-.03,1.96-.06,1.3-.03,2.53-.03,3.11-.18,1.72-.45,4.74-2.99,6.82-6.04.33-.45,2.5-3.95,2.35-7.97ZM176.1,128.18c.36-1.78.75-3.62.81-5.76.09-3.44-1.03-5.19-1.99-5.67-.69-.33-1.27,0-1.66.3-2.35,1.99-8.72,2.93-8.99,2.96h-.09c-3.77.09-5.22.72-5.76,1.09h.3c1.99-.24,2.84.21,4.07.91.45.24,1,.54,1.69.88,1.6.72,3.62.36,5.22.06.78-.15,1.45-.27,2.05-.27.94,0,1.78.48,2.35,1.36,1,1.48,1,3.77,0,6.25-.78,1.93-.6,2.17-.33,2.56.42.6.78,1.27.72,2.75-.09,3.14.54,7.03,1.9,8.09.33.27.69.33,1.15.21.75-.21.91-.51.97-.6.39-.81-.48-2.72-1.33-4.53-.39-.81-.78-1.66-1.12-2.53-1.09-2.75-.54-5.31.03-8.03ZM179.06,125.7c-.18-.57-.39-1.09-.57-1.57-.15,1.63-.48,3.08-.75,4.41-.03.12-.03.21-.06.3,1.6,2.08,4.38,17.8,4.89,28.46.21-7.6-.54-23.05-3.5-31.59ZM183.83,139.52c10.32-3.8,17.2-14.27,16.02-25.71h0c-.69-6.55-3.86-12.46-8.99-16.63-4.44-3.59-9.87-5.52-15.51-5.52-.88,0-1.72.03-2.6.12-6.55.69-12.46,3.86-16.63,8.99-4.16,5.13-6.07,11.56-5.4,18.11.03.27.06.54.09.81.91.03,1.81.06,2.75.06-.36-3.26.51-5.1,1.18-5.55.69-.54,18.17.66,18.65.84.03,0,.03.03.03.03.72-.24,1.51-.21,2.23.15.51.24.97.6,1.33,1.09,3.02-.27,16.39,5.28,17.26,6.01,1,.78,1,2.78-.78,6.43-1.81,3.68-6.97,7-8.81,5.64-.45-.33-1.18-1.57-2.02-3.26.48,2.63.88,5.49,1.21,8.39ZM189.2,139.22c1,1.48,2.14,3.23,2.14,3.23,0,0-1.09-2.29-1.48-3.65-.24.12-.45.27-.66.42ZM186.39,140.7h0v.03-.03ZM199.94,147.22c-.84.18-1.72.36-2.66.51,1.3.69,2.23,1.27,2.23,1.27l-1.9-.88c-.27-.12-.54-.21-.84-.3-1.03.15-2.08.24-3.17.24.42.36,1.03.84,1.84,1.45,1.72,1.27,4.95,2.66,5.64,2.93-.78-.27-5.04-1.69-5.34-1.81.36.12,5.25,6.04,5.25,6.04,0,0-4.32-4.16-9.42-8.66-1.27-.12-2.53-.33-3.77-.72h0c.51.54,1.06,1.15,1.21,1.51.33.75,1.21,6.16,1.21,6.16,0,0-.15-5.07.42-4.83s1.66,1.45,2.23,2.56c.57,1.09,2.02,5.22,2.02,5.22l-.27-4.22s5.64,4.41,7.94,5.88c2.29,1.48,2.56,1.63,2.56,1.63,0,0-12.01.27-17.8-4.71-.94-.81-1.87-1.78-2.75-2.81v1.51c.51.54,1.06,1.06,1.57,1.51,4.13,3.62,9.99,4.41,13.49,4.89.57.09,1.09.15,1.51.21l.09.03c1.66.27,3.92.63,4.56.42-.06-.39-.06-.88-.06-1.48-.03-1.75-.09-4.62-1.33-6.07h-.06s0-.03.03-.06c0,0,0-.03-.03-.03-.36-.39-2.17-2.2-3.26-2.56-.75-.27.21-.18,1.33.12-.72-1.27-1.51-2.81-2.47-4.95ZM186.3,152.92l.36-6.1c-.39-.15-.75-.3-1.15-.48l.78,6.58ZM208.57,142.93c-.21-.33-.39-.78-.66-1.33-.72-1.6-1.93-4.22-3.62-5.04l-.06.03v-.06s-.03,0-.03-.03c-.51-.21-2.87-1.15-4.01-1.06-.81.06.15-.24,1.27-.42-1.21-.81-2.53-1.87-4.22-3.41-.36.54-.75,1.06-1.18,1.57.84.09,1.39.15,1.39.15l-1.51-.03c-.6.75-1.24,1.45-1.93,2.11,2.08.45,5.52.45,6.25.42-.81.06-5.31.45-5.61.45.39-.03,7.21,3.44,7.21,3.44,0,0-3.98-1.48-9.08-3.2-.63.57-1.33,1.09-2.02,1.6.66.27,1.45.69,2.02,1.18.97.78,3.92,3.98,3.92,3.98l-1.93-3.77s6.91,1.78,9.63,2.23,3.02.48,3.02.48c0,0-10.89,5.01-18.23,2.75-1.72-.54-3.47-1.36-5.19-2.32.03.42.06.84.09,1.24,1.42.72,2.81,1.33,4.1,1.75,5.25,1.69,10.92.09,14.3-.88.54-.15,1.06-.3,1.48-.39l.09-.03c1.81-.42,4.01-.97,4.53-1.42ZM200.3,135.84h.15-.15ZM146.23,99.24h0s-.06-.03-.09-.06c-.03,0-.03-.03-.03-.03-.03.03.03.06.12.09ZM159.11,102.41c-1.06-.42-2.05,0-3.68,2.38-1.63,2.38-1.27,7.39-.54,7.94.75.54,18.47,1.75,18.47,1.75,0,0,.84-.27.42-.81-.42-.54-13.61-10.83-14.67-11.26ZM165.54,96.19c-3.29,1.18-5.94,4.19-5.43,5.16.54.97,14.24,11.47,14.24,11.47.91.15.24-13.97-.48-16.63-.69-2.69-5.04-1.18-8.33,0ZM187.45,100.54c.75-1.39.63-2.81-2.29-4.35-2.93-1.54-8.72-2.08-9.14-.75s-.3,13.91-.36,15.72.72,1.66.72,1.66c.84,0,10.32-10.89,11.07-12.28ZM194.93,107.26c.15-2.23-2.44-6.7-4.29-6.79-1.87-.12-12.22,11.68-12.58,12.34-.36.63.42,1.27.42,1.27,1.24.39,16.3-4.56,16.45-6.82ZM196.98,119.18c.6-2.41-.15-8.12-1.51-8.57-1.39-.45-15.93,3.92-16.69,4.35s0,.75,0,.75c0,0,13.16,4.38,14.12,4.83,1,.39,3.47,1.03,4.07-1.36ZM120.43,187.44c1.3,6.46,5.97,4.41,5.97,4.41,0,0-1.18-.15-3.2-1.39-2.02-1.27-2.78-3.02-2.78-3.02ZM98.91,172.42c-4.95-1.06-7.57-4.16-7.57-4.16,0,0,2.23,3.98,7.27,5.31,5.04,1.33,10.47-.78,10.47-.78,0,0-5.22.72-10.17-.36ZM115.93,190.28c1.06,3.92-.03,9.2-.03,9.2,3.32-8.84-1.06-13.13-1.06-13.13,0,0,.03,0,1.09,3.92ZM96.01,197.22s1.51,10.32,2.02,14.42.54,10.86.54,10.86c0,0,.78-3.11.3-10.08-.51-6.97-2.87-15.21-2.87-15.21ZM118.74,236.78c-.06-.06-.12-.09-.15-.09-.06,0,0,.03.15.09ZM163.16,144.77c-3.86-1.87-12.43-2.2-17.23-.24-4.8,1.93-7.51,8.24-7.51,8.24-.91-1.24-3.59-1.93-3.59-1.93l1.66,1.6c1.66,1.6,1.36,3.47,1.63,7.76.27,4.25,3.11,6.1,3.11,6.1l-1.33-2.84c-1.33-2.84-.66-6.31,0-4.44.63,1.84,1.39,5.46,5.19,8s9.75,2.72,9.75,2.72c0,0-3.68-.66-7.3-3.38-3.62-2.69-4.22-6.1-4.22-6.1,0,0,2.2,3.86,5.28,5.1,3.08,1.27,4.1,2.69,8.6,3.41s9.14-2.2,9.14-2.2l-1.33,1.39c-1.33,1.39-6.52,2.5-6.52,2.5,0,0,2.66-.18,4.86-.57,2.23-.39,4.29-.94,6.61-5.37,2.32-4.44,2.05-13.1,1-15-1-1.9-3.92-2.84-7.79-4.74ZM132.74,160.41c-.88-.51-1.39.06-1.63.42-.24-.36-.75-.94-1.63-.42-1.27.72-6.49,11.74-7.85,14.06-1.36,2.32-1.57,5.85-1.45,7.57l.15,1.72s.15-4.56,1.3-6.46l1.15-1.87s-1.36,4.47-.54,7.69c.81,3.26,1.81,4.65,3.05,5.28,1.24.63,1.84.66,1.84.66,0,0-2.96-1.18-3.14-3.77,0,0,.36,1.81,2.81,1.99,2.44.18,3.65-3.56,4.04-4.95.12-.48.21-.91.27-1.27.06.33.15.75.27,1.27.36,1.39,1.6,5.13,4.04,4.95,2.44-.18,2.81-1.99,2.81-1.99-.18,2.6-3.14,3.77-3.14,3.77,0,0,.6,0,1.84-.66,1.24-.63,2.23-2.02,3.05-5.28s-.54-7.69-.54-7.69l1.15,1.87c1.15,1.87,1.3,6.46,1.3,6.46l.15-1.72c.15-1.72-.09-5.25-1.45-7.57-1.36-2.29-6.58-13.34-7.85-14.06ZM139.02,190.43c-2.02,1.24-3.2,1.39-3.2,1.39,0,0,4.68,2.05,5.97-4.41,0,.03-.75,1.78-2.78,3.02ZM163.31,172.42c-4.95,1.09-10.17.39-10.17.39,0,0,5.4,2.11,10.47.78,5.04-1.33,7.27-5.31,7.27-5.31,0,0-2.63,3.08-7.57,4.13ZM142.58,138.38c2.96-2.17,5.85-2.11,6.07-2.11-10.17-.63-10.56,7.06-10.56,7.06,0,0,1.42-2.72,4.5-4.95ZM147.34,186.36s-4.38,4.29-1.06,13.13c0,0-1.09-5.28-.03-9.2l1.09-3.92ZM163.67,222.51s.03-6.76.54-10.86c.51-4.1,2.02-14.42,2.02-14.42,0,0-2.38,8.24-2.87,15.21-.51,6.97.3,10.08.3,10.08ZM156.07,231.44c-4.07,2.87-4.13,2.5-5.25,4.65-1.12,2.14-9.57,3.89-10.41,3.98-.78.06,2.32-2.78,3.08-3.29-.63.24-2.87,1.06-5.16,2.56-1.96,1.3-4.68,1.66-6.13,1.75-.33.03-2.17,0-2.35,0-1.51-.12-4.04-.48-5.94-1.75-2.29-1.51-4.56-2.32-5.16-2.56.75.51,3.86,3.35,3.08,3.29-.84-.06-9.29-1.84-10.41-3.98-1.12-2.14-1.18-1.78-5.25-4.65s-5.43-8.54-5.43-8.54c0,0-.48,1.27,0,3.89.48,2.63,2.41,5.01,4.38,6.04s3.23,4.01,4.71,6.07c1.48,2.05,3.65,3.14,7.82,4.32,4.19,1.21,13.43,1.42,13.43,1.42.63.09,2.17-.09,2.17-.09h0c2.96-.15,8.39-.48,11.35-1.33,4.19-1.21,6.34-2.29,7.82-4.32,1.48-2.05,2.75-5.04,4.71-6.07,1.96-1.03,3.89-3.44,4.38-6.04.48-2.63,0-3.89,0-3.89,0,0-1.33,5.67-5.4,8.54ZM143.66,236.69s-.09.03-.15.09c.12-.06.18-.09.15-.09ZM140.25,116.59c.09.06.15.09.18.09.09,0,0-.03-.18-.09Z"/>
</svg>